<?xml version="1.0" encoding="UTF-8" standalone="no"?>
<!-- Created with Inkscape (http://www.inkscape.org/) -->

<svg
   width="340"
   height="60"
   viewBox="0 0 89.958333 15.875"
   version="1.1"
   id="svg5"
   inkscape:version="1.2 (dc2aedaf03, 2022-05-15)"
   sodipodi:docname="oxypteros.svg"
   xmlns:inkscape="http://www.inkscape.org/namespaces/inkscape"
   xmlns:sodipodi="http://sodipodi.sourceforge.net/DTD/sodipodi-0.dtd"
   xmlns="http://www.w3.org/2000/svg"
   xmlns:svg="http://www.w3.org/2000/svg">
  <sodipodi:namedview
     id="namedview7"
     pagecolor="#ffffff"
     bordercolor="#666666"
     borderopacity="1.0"
     inkscape:showpageshadow="2"
     inkscape:pageopacity="0.0"
     inkscape:pagecheckerboard="0"
     inkscape:deskcolor="#d1d1d1"
     inkscape:document-units="mm"
     showgrid="false"
     inkscape:zoom="0.75900673"
     inkscape:cx="-81.685705"
     inkscape:cy="286.55872"
     inkscape:window-width="1920"
     inkscape:window-height="1023"
     inkscape:window-x="0"
     inkscape:window-y="26"
     inkscape:window-maximized="1"
     inkscape:current-layer="layer1" />
  <defs
     id="defs2" />
  <g
     inkscape:label="Layer 1"
     inkscape:groupmode="layer"
     id="layer1"
     transform="translate(-51.238016,-72.796713)">
    <g
       aria-label="Oxypteros"
       id="text63"
       style="font-weight:300;font-size:16.9333px;line-height:1.25;font-family:'Roboto Mono';-inkscape-font-specification:'Roboto Mono Light';fill:#003610;stroke-width:0.264583">
      <path
         d="m 59.340864,79.775085 v -1.587497 q -0.0083,-0.611848 -0.115755,-1.2485 -0.09922,-0.644921 -0.305924,-1.248501 -0.214973,-0.595311 -0.537434,-1.124477 -0.32246,-0.529165 -0.768943,-0.926039 -0.446484,-0.388606 -1.025259,-0.611848 -0.578775,-0.23151 -1.298109,-0.23151 -0.719335,0 -1.29811,0.23151 -0.578774,0.223242 -1.025258,0.611848 -0.446483,0.405142 -0.768944,0.934308 -0.32246,0.520897 -0.529165,1.124477 -0.214974,0.595311 -0.322461,1.240232 -0.09922,0.636652 -0.107486,1.2485 v 1.587497 q 0.0083,0.620116 0.115754,1.256768 0.107487,0.636652 0.322461,1.231964 0.206705,0.603579 0.529165,1.132745 0.330729,0.520897 0.777212,0.917771 0.446484,0.396875 1.025259,0.628385 0.578775,0.223241 1.298109,0.223241 0.711067,0 1.289841,-0.223241 0.578775,-0.23151 1.025259,-0.628385 0.446483,-0.396874 0.768944,-0.917771 0.32246,-0.529166 0.529165,-1.124477 0.206706,-0.60358 0.305924,-1.240232 0.107487,-0.636652 0.115755,-1.256768 z m -0.975649,-1.604034 v 1.604034 q -0.0083,0.479556 -0.07441,1.000453 -0.05788,0.51263 -0.206705,1.008722 -0.148828,0.504361 -0.380338,0.950845 -0.23151,0.446483 -0.570507,0.78548 -0.338996,0.347265 -0.793748,0.545702 -0.454752,0.198437 -1.033527,0.198437 -0.587043,0 -1.041795,-0.198437 -0.446483,-0.198437 -0.78548,-0.545702 -0.347265,-0.338997 -0.587043,-0.78548 -0.23151,-0.454752 -0.380338,-0.950845 -0.148828,-0.496092 -0.214973,-1.008722 -0.06615,-0.520897 -0.07441,-1.000453 v -1.604034 q 0.0083,-0.471288 0.07441,-0.983917 0.06615,-0.512629 0.214973,-1.01699 0.148828,-0.496093 0.380338,-0.942577 0.23151,-0.446483 0.578775,-0.793748 0.338997,-0.330729 0.78548,-0.529166 0.454752,-0.206705 1.033527,-0.206705 0.578775,0 1.033526,0.198437 0.454752,0.198437 0.793749,0.537434 0.338997,0.338997 0.570507,0.793748 0.239778,0.446484 0.388606,0.934309 0.148827,0.50436 0.214973,1.01699 0.06615,0.512629 0.07441,0.992185 z"
         id="path6124" />
      <path
         d="m 65.542024,79.692402 -2.769852,-3.638013 h -1.182354 l 3.406504,4.390421 -3.547064,4.555785 h 1.190623 l 2.910411,-3.803378 2.926947,3.803378 h 1.174086 l -3.547063,-4.555785 3.406504,-4.390421 h -1.190623 z"
         id="path6121" />
      <path
         d="m 72.603077,88.613804 q 0.578775,0 1.016991,-0.198437 0.446483,-0.190169 0.78548,-0.496093 0.330728,-0.305924 0.578775,-0.69453 0.248046,-0.388606 0.429947,-0.793748 l 4.621931,-10.376607 h -1.124477 l -2.910411,6.813007 -0.32246,0.777212 -0.322461,-0.802016 -3.075775,-6.788203 h -1.116209 l 4.02662,8.722964 -0.611848,1.306378 q -0.132291,0.281119 -0.314192,0.570507 -0.181901,0.289387 -0.429947,0.529165 -0.248046,0.239778 -0.562238,0.388606 -0.305924,0.148828 -0.686262,0.148828 -0.148828,0 -0.338997,-0.01654 -0.181901,-0.01654 -0.372069,-0.04134 l -0.115755,0.835089 q 0.173632,0.04134 0.405142,0.07441 0.239778,0.04134 0.438215,0.04134 z"
         id="path6118" />
      <path
         d="m 82.326496,88.440172 h 0.983918 v -4.522713 q 0.198437,0.264583 0.454752,0.479557 0.264582,0.214973 0.562238,0.363801 0.37207,0.198437 0.793748,0.297656 0.429948,0.107486 0.892967,0.107486 0.901236,0 1.562693,-0.380337 0.661457,-0.380338 1.091404,-1.008722 0.421679,-0.628385 0.636652,-1.455206 0.223242,-0.826821 0.223242,-1.703252 V 80.44481 q -0.0083,-0.942576 -0.239778,-1.802471 -0.223242,-0.859894 -0.69453,-1.496546 -0.446484,-0.587043 -1.091404,-0.917772 -0.636653,-0.338997 -1.513083,-0.338997 -0.454752,0 -0.876431,0.107487 -0.421679,0.107487 -0.78548,0.314192 -0.305924,0.173633 -0.578775,0.421679 -0.264583,0.248047 -0.46302,0.55397 l -0.04134,-1.231963 h -0.917772 z m 6.209428,-7.995362 v 0.173632 q -0.0083,0.686262 -0.165364,1.364255 -0.148828,0.677994 -0.487824,1.207159 -0.330729,0.496093 -0.851626,0.810285 -0.51263,0.314192 -1.248501,0.314192 -0.41341,0 -0.802016,-0.107486 -0.388606,-0.107487 -0.711066,-0.314192 -0.314193,-0.190169 -0.562239,-0.46302 -0.239778,-0.28112 -0.396874,-0.628385 v -4.365616 q 0.157096,-0.380338 0.405142,-0.686262 0.248047,-0.314192 0.570507,-0.537433 0.305924,-0.214974 0.677993,-0.330729 0.380338,-0.124023 0.802017,-0.124023 0.719335,0 1.223696,0.289387 0.504361,0.289388 0.843357,0.752408 0.363802,0.545702 0.529166,1.240232 0.173632,0.694529 0.173632,1.405596 z"
         id="path6115" />
      <path
         d="m 95.762341,73.764094 h -1.008722 v 2.290295 h -2.488732 v 0.818553 h 2.488732 v 5.605848 q 0.0083,0.735871 0.214974,1.2485 0.214973,0.504361 0.587043,0.826822 0.37207,0.32246 0.876431,0.46302 0.512629,0.148827 1.10794,0.148827 0.289388,0 0.578775,-0.0248 0.297656,-0.01654 0.570507,-0.05788 0.214973,-0.03307 0.405142,-0.08268 0.198437,-0.05788 0.355533,-0.124023 l -0.157096,-0.752407 q -0.124023,0.01654 -0.289387,0.04961 -0.165364,0.0248 -0.347265,0.04961 -0.23151,0.03307 -0.471288,0.04961 -0.239778,0.01654 -0.479557,0.01654 -0.405142,0 -0.760675,-0.09095 -0.347265,-0.09095 -0.611848,-0.305923 -0.264583,-0.206706 -0.421679,-0.545702 -0.148828,-0.347265 -0.157096,-0.868163 v -5.605848 h 3.315553 v -0.818553 h -3.315553 z"
         id="path6112" />
      <path
         d="m 106.4366,85.165959 q 1.11621,0 1.95957,-0.438215 0.84336,-0.438215 1.35599,-1.149282 l -0.62839,-0.479556 q -0.47955,0.595311 -1.14928,0.909504 -0.66972,0.314192 -1.49655,0.314192 -0.71933,-0.0083 -1.30637,-0.289388 -0.58705,-0.281119 -1.00873,-0.768944 -0.41341,-0.46302 -0.65318,-1.074867 -0.23151,-0.611848 -0.26459,-1.322914 v -0.272851 h 6.69726 v -0.60358 q 0,-0.851626 -0.24805,-1.595765 -0.23978,-0.752407 -0.7028,-1.314646 -0.47129,-0.55397 -1.16582,-0.868162 -0.68626,-0.322461 -1.57096,-0.322461 -0.84336,0 -1.57096,0.347265 -0.71933,0.347265 -1.25677,0.959113 -0.5457,0.611848 -0.85989,1.438669 -0.30592,0.826821 -0.30592,1.785934 v 0.355533 q 0,0.901236 0.30592,1.703252 0.30592,0.793749 0.85989,1.397328 0.54571,0.595311 1.31465,0.942576 0.76894,0.347265 1.69498,0.347265 z m -0.1819,-8.425309 q 0.63665,0 1.13275,0.248047 0.49609,0.239778 0.84336,0.64492 0.33899,0.405143 0.52916,0.942577 0.19844,0.537434 0.19844,1.074867 v 0.09095 h -5.66373 q 0.0827,-0.644921 0.33073,-1.190623 0.24805,-0.55397 0.63665,-0.959113 0.38034,-0.396874 0.8847,-0.620116 0.50436,-0.23151 1.10794,-0.23151 z"
         id="path6109" />
      <path
         d="m 118.69837,75.889024 q -1.21543,-0.0083 -2.11667,0.504361 -0.89296,0.51263 -1.41386,1.430401 l -0.008,-0.396874 -0.0579,-1.372523 h -0.94257 v 8.946206 h 1.02526 l -0.0165,-5.729871 q 0.16536,-0.611848 0.47129,-1.058332 0.31419,-0.454751 0.73587,-0.752407 0.43821,-0.305924 0.98392,-0.446484 0.55397,-0.148827 1.18235,-0.148827 0.3638,0 0.71107,0.04134 0.34726,0.04134 0.68626,0.115755 l 0.13229,-0.959113 q -0.25632,-0.08268 -0.63665,-0.124023 -0.37207,-0.04961 -0.73587,-0.04961 z"
         id="path6106" />
      <path
         d="m 122.43559,80.395201 v 0.264582 q 0,0.917772 0.27285,1.736325 0.27285,0.818553 0.79375,1.430401 0.50436,0.620116 1.2485,0.983917 0.74414,0.355533 1.68672,0.355533 0.93431,0 1.67018,-0.363801 0.74414,-0.363801 1.25677,-0.975649 0.50436,-0.620116 0.77721,-1.430401 0.27285,-0.818553 0.27285,-1.736325 v -0.264582 q 0,-0.917772 -0.27285,-1.736325 -0.27285,-0.818553 -0.78548,-1.430401 -0.51263,-0.620116 -1.25677,-0.975649 -0.73587,-0.363802 -1.67845,-0.363802 -0.94257,0 -1.67845,0.363802 -0.73587,0.363801 -1.2485,0.975649 -0.51263,0.620116 -0.78548,1.438669 -0.27285,0.818553 -0.27285,1.728057 z m 0.98392,0.264582 v -0.264582 q 0.008,-0.702799 0.19844,-1.364256 0.19843,-0.661457 0.58704,-1.165818 0.37207,-0.512629 0.92604,-0.818553 0.56224,-0.305924 1.28984,-0.305924 0.7276,0 1.28157,0.305924 0.56224,0.305924 0.95085,0.818553 0.37207,0.504361 0.57051,1.165818 0.19843,0.661457 0.2067,1.364256 v 0.264582 q -0.008,0.711067 -0.2067,1.372524 -0.19017,0.661457 -0.56224,1.165818 -0.38861,0.512629 -0.94258,0.818553 -0.55397,0.305924 -1.28157,0.305924 -0.73587,0 -1.29811,-0.305924 -0.56224,-0.305924 -0.93431,-0.810285 -0.38861,-0.512629 -0.58704,-1.174086 -0.19017,-0.661457 -0.19844,-1.372524 z"
         id="path6103" />
      <path
         d="m 139.34409,82.718568 q 0,0.314192 -0.14056,0.570507 -0.13229,0.256315 -0.38034,0.454752 -0.38033,0.289387 -0.90123,0.438215 -0.5209,0.14056 -1.10794,0.14056 -0.44649,0 -0.91777,-0.08268 -0.46302,-0.09095 -0.85163,-0.305924 -0.38861,-0.214974 -0.66146,-0.562239 -0.26458,-0.355533 -0.31419,-0.884699 h -0.99218 q 0.0248,0.611848 0.31419,1.107941 0.29765,0.496093 0.81028,0.843358 0.4961,0.338996 1.17409,0.537433 0.67799,0.190169 1.43867,0.190169 0.7028,0 1.38079,-0.173632 0.67799,-0.173633 1.19062,-0.537434 0.42168,-0.305924 0.68626,-0.752407 0.26459,-0.454752 0.26459,-1.033527 0,-0.611848 -0.28112,-1.041795 -0.27285,-0.438215 -0.73587,-0.744139 -0.47129,-0.305924 -1.09141,-0.504361 -0.62011,-0.198437 -1.29811,-0.347265 -0.52916,-0.107487 -1.01699,-0.239778 -0.47955,-0.14056 -0.82682,-0.347265 -0.34726,-0.190169 -0.52916,-0.471288 -0.18191,-0.289388 -0.18191,-0.677994 0,-0.388606 0.20671,-0.677993 0.20671,-0.297656 0.53743,-0.487825 0.33073,-0.198437 0.75241,-0.289387 0.42995,-0.09922 0.8847,-0.09922 0.47956,0 0.92604,0.124024 0.45475,0.124023 0.81028,0.355533 0.34727,0.23151 0.56224,0.570506 0.22325,0.338997 0.23151,0.768944 h 1.00046 q -0.0248,-0.636652 -0.31419,-1.132745 -0.28112,-0.496093 -0.75241,-0.843358 -0.47129,-0.338996 -1.10794,-0.512629 -0.62839,-0.181901 -1.35599,-0.181901 -0.64492,0 -1.25677,0.165365 -0.60358,0.165364 -1.05833,0.46302 -0.47956,0.32246 -0.76894,0.777212 -0.28112,0.454751 -0.28112,1.033526 0,0.611848 0.28112,1.041795 0.28938,0.421679 0.7524,0.69453 0.4961,0.289387 1.0666,0.471288 0.57051,0.181901 1.25677,0.32246 0.5457,0.115755 1.05007,0.28112 0.50436,0.165364 0.85989,0.396874 0.32246,0.206705 0.50436,0.504361 0.1819,0.289387 0.1819,0.677993 z"
         id="path6100" />
    </g>
  </g>
</svg>
