<?xml version="1.0" encoding="UTF-8" standalone="no"?>
<!-- Created with Inkscape (http://www.inkscape.org/) -->

<svg
   width="1132.8022"
   height="150"
   viewBox="0 0 299.72058 39.687499"
   version="1.1"
   id="svg425"
   inkscape:version="1.2.2 (b0a8486541, 2022-12-01)"
   xmlns:inkscape="http://www.inkscape.org/namespaces/inkscape"
   xmlns:sodipodi="http://sodipodi.sourceforge.net/DTD/sodipodi-0.dtd"
   xmlns="http://www.w3.org/2000/svg"
   xmlns:svg="http://www.w3.org/2000/svg">
  <sodipodi:namedview
     id="namedview427"
     pagecolor="#ffffff"
     bordercolor="#666666"
     borderopacity="1.0"
     inkscape:showpageshadow="false"
     inkscape:pageopacity="0.0"
     inkscape:pagecheckerboard="true"
     inkscape:deskcolor="#d1d1d1"
     inkscape:document-units="px"
     showgrid="false"
     showborder="false"
     borderlayer="false"
     inkscape:zoom="1.6819304"
     inkscape:cx="610.01335"
     inkscape:cy="68.373816"
     inkscape:window-width="1920"
     inkscape:window-height="1026"
     inkscape:window-x="0"
     inkscape:window-y="26"
     inkscape:window-maximized="1"
     inkscape:current-layer="layer1" />
  <defs
     id="defs422" />
  <g
     inkscape:label="Layer 1"
     inkscape:groupmode="layer"
     id="layer1"
     transform="translate(1.0430857e-6,-65.741974)">
    <rect
       style="fill:#385c43;fill-opacity:1;stroke:none;stroke-width:4.52164;stroke-linecap:round;stroke-linejoin:round"
       id="rect1258"
       width="34.395832"
       height="39.6875"
       x="148.72922"
       y="65.741974"
       ry="1.3053828" />
    <g
       aria-label="Xenios"
       id="text1474"
       style="font-weight:200;font-size:38.1px;line-height:1.25;font-family:'Roboto Slab';-inkscape-font-specification:'Roboto Slab Ultra-Light';fill:#385c43;fill-opacity:1;stroke-width:0.264583"
       transform="matrix(1.1334597,0,0,1.1334597,-19.279492,-14.179496)">
      <path
         d="m 17.009419,101.56168 v -1.33945 L 19.204634,100.11061 28.07851,87.757876 19.632515,75.92604 17.4373,75.814419 v -1.339453 h 7.050732 v 1.339453 l -2.957959,0.07441 7.534424,10.678418 7.460009,-10.678418 -2.957959,-0.07441 v -1.339453 h 7.050732 v 1.339453 l -2.213818,0.111621 -8.334375,11.831836 8.818067,12.352734 2.213818,0.11162 v 1.33945 h -7.069336 v -1.33945 l 2.957959,-0.0558 -7.943701,-11.236523 -7.906494,11.236523 2.920752,0.0558 v 1.33945 z"
         id="path1476"
         style="fill:#385c43;fill-opacity:1" />
      <path
         d="m 52.066725,101.95236 q -2.511474,0 -4.464843,-1.24644 -1.934766,-1.246434 -3.050977,-3.441648 -1.097607,-2.213819 -1.097607,-5.097363 v -1.097608 q 0,-2.883545 1.097607,-5.13457 1.097608,-2.269629 2.976563,-3.571875 1.878955,-1.302246 4.204394,-1.302246 2.399853,0 4.12998,1.041797 1.730127,1.041797 2.660303,2.939355 0.948779,1.878955 0.948779,4.44624 v 1.730127 H 45.164821 l -0.0186,1.097608 q 0.0186,2.344043 0.892968,4.185791 0.874366,1.841748 2.418457,2.920751 1.562696,1.060401 3.609082,1.060401 1.897559,0 3.348633,-0.63252 1.469678,-0.632519 2.585889,-1.711523 l 0.762744,1.190625 q -1.190625,1.153418 -2.827735,1.897558 -1.637109,0.72554 -3.869531,0.72554 z M 45.350856,89.729848 h 12.445752 v -0.576709 q 0,-1.897558 -0.744141,-3.385839 -0.725537,-1.506885 -2.083593,-2.362647 -1.358057,-0.874365 -3.237012,-0.874365 -1.711523,0 -3.106787,0.948779 -1.395264,0.930176 -2.269629,2.530078 -0.874365,1.599902 -1.0604,3.627686 z"
         id="path1478"
         style="fill:#385c43;fill-opacity:1" />
      <path
         d="m 63.191626,101.56168 v -1.33945 l 3.032373,-0.13022 V 82.902358 l -3.032373,-0.130224 v -1.339453 h 4.502051 l 0.167432,3.850927 q 0.930175,-2.009179 2.623095,-3.106787 1.69292,-1.116211 4.092774,-1.116211 3.292822,0 4.967138,2.027783 1.674316,2.027784 1.674316,6.399609 v 10.604008 l 3.032373,0.13022 v 1.33945 h -7.739062 v -1.33945 l 3.032373,-0.13022 V 89.488002 q 0,-3.795117 -1.395264,-5.357812 -1.37666,-1.562695 -3.832324,-1.562695 -2.827734,0 -4.371826,1.655713 -1.544091,1.637109 -2.046386,4.241601 v 11.627201 l 3.032373,0.13022 v 1.33945 z"
         id="path1480"
         style="fill:#385c43;fill-opacity:1" />
      <path
         d="m 87.822682,101.56168 v -1.33945 l 3.032373,-0.13022 V 82.902358 l -3.032373,-0.130224 v -1.339453 h 4.706689 v 18.659329 l 3.032373,0.13022 v 1.33945 z M 90.557399,75.479556 V 72.5402 h 1.971972 v 2.939356 z"
         id="path1482"
         style="fill:#385c43;fill-opacity:1" />
      <path
         d="m 108.50979,101.95236 q -2.6603,0 -4.66948,-1.28365 -1.99058,-1.302241 -3.10679,-3.57187 -1.116209,-2.288232 -1.116209,-5.246191 v -0.68833 q 0,-2.957959 1.116209,-5.227588 1.11621,-2.288232 3.10679,-3.571875 1.99057,-1.302246 4.63227,-1.302246 2.66031,0 4.65088,1.302246 1.99058,1.283643 3.10679,3.553272 1.11621,2.269628 1.11621,5.246191 v 0.68833 q 0,2.957959 -1.11621,5.246191 -1.11621,2.269629 -3.10679,3.57187 -1.99057,1.28365 -4.61367,1.28365 z m 0,-1.46968 q 2.21382,0 3.81372,-1.153418 1.5999,-1.153418 2.47427,-3.106787 0.87436,-1.971973 0.87436,-4.371826 v -0.68833 q 0,-2.38125 -0.87436,-4.334619 -0.87437,-1.971973 -2.49287,-3.125391 -1.61851,-1.172021 -3.83233,-1.172021 -2.21381,0 -3.83232,1.172021 -1.5999,1.153418 -2.47427,3.125391 -0.87436,1.953369 -0.87436,4.334619 v 0.68833 q 0,2.418457 0.87436,4.390429 0.87437,1.953369 2.49287,3.106787 1.61851,1.134815 3.85093,1.134815 z"
         id="path1484"
         style="fill:#385c43;fill-opacity:1" />
      <path
         d="m 128.32253,101.95236 q -2.13941,0 -3.98115,-0.63252 -1.82315,-0.63252 -3.25562,-1.785939 l -0.0186,-3.888135 h 1.45107 l 0.16743,2.995166 q 1.09761,0.985986 2.54869,1.432468 1.45107,0.42788 3.08818,0.42788 2.6603,0 4.12998,-1.190622 1.46968,-1.190625 1.46968,-2.790527 0,-1.488281 -1.28365,-2.678906 -1.26503,-1.190625 -4.44624,-1.897559 -3.59047,-0.762744 -5.15317,-2.009179 -1.56269,-1.265039 -1.56269,-3.590479 0,-1.488281 0.81855,-2.678906 0.81855,-1.209228 2.34404,-1.897558 1.52549,-0.706934 3.59048,-0.706934 2.19522,0 3.83233,0.68833 1.6371,0.68833 2.79052,1.841748 l 0.0558,3.962549 h -1.45107 l -0.14883,-3.106787 q -0.89297,-0.930176 -2.1022,-1.413867 -1.20922,-0.502295 -2.97656,-0.502295 -2.47427,0 -3.77651,1.153418 -1.30225,1.134814 -1.30225,2.604492 0,0.985986 0.40928,1.730127 0.42788,0.74414 1.5813,1.339453 1.17202,0.576709 3.42304,1.079004 3.59048,0.818554 5.30201,2.251025 1.73012,1.413867 1.73012,3.795117 0,2.399854 -1.93476,3.943946 -1.91616,1.52549 -5.33921,1.52549 z"
         id="path1486"
         style="fill:#385c43;fill-opacity:1" />
    </g>
    <g
       aria-label="P"
       id="text1413"
       style="font-weight:300;font-size:38.1px;line-height:1.25;font-family:'Roboto Slab';-inkscape-font-specification:'Roboto Slab Light';fill:#fefefe;fill-opacity:1;stroke-width:0.264583"
       transform="matrix(1.2307693,0,0,1.2307693,-40.350388,-25.829458)">
      <path
         d="m 157.6662,104.06819 v -1.33945 l 3.03237,-0.13023 V 78.451152 l -3.03237,-0.130225 v -1.339453 h 3.03237 7.99952 q 2.82773,0 4.7997,0.985986 1.99058,0.967383 3.01377,2.734717 1.0232,1.748731 1.0232,4.092773 0,2.399854 -1.0232,4.167188 -1.02319,1.74873 -3.01377,2.716113 -1.97197,0.948779 -4.7997,0.948779 h -6.3252 v 9.97148 l 3.03237,0.13023 v 1.33945 z m 4.70669,-12.910837 h 6.3252 q 3.57187,0 5.35781,-1.804541 1.80454,-1.804541 1.80454,-4.520655 0,-2.75332 -1.78594,-4.557861 -1.78594,-1.823144 -5.37641,-1.823144 h -6.3252 z"
         style="font-weight:200;-inkscape-font-specification:'Roboto Slab Ultra-Light';fill:#fefefe;fill-opacity:1"
         id="path1465" />
    </g>
    <g
       aria-label="etritis"
       id="text2217"
       style="font-weight:200;font-size:38.1px;line-height:1.25;font-family:'Roboto Slab';-inkscape-font-specification:'Roboto Slab Ultra-Light';fill:#385c43;fill-opacity:1;stroke-width:0.264583"
       transform="matrix(1.13346,0,0,1.13346,-30.139932,-14.62096)">
      <path
         d="m 199.64041,103.11386 q -2.51147,0 -4.46484,-1.24643 -1.93477,-1.24644 -3.05098,-3.441652 -1.09761,-2.213818 -1.09761,-5.097363 v -1.097607 q 0,-2.883545 1.09761,-5.13457 1.09761,-2.269629 2.97656,-3.571875 1.87896,-1.302246 4.2044,-1.302246 2.39985,0 4.12998,1.041797 1.73012,1.041797 2.6603,2.939355 0.94878,1.878955 0.94878,4.44624 v 1.730127 h -14.3061 l -0.0186,1.097607 q 0.0186,2.344043 0.89297,4.185791 0.87437,1.841748 2.41846,2.920756 1.56269,1.0604 3.60908,1.0604 1.89756,0 3.34863,-0.63252 1.46968,-0.63252 2.58589,-1.711526 l 0.76275,1.190626 q -1.19063,1.15342 -2.82774,1.89756 -1.63711,0.72553 -3.86953,0.72553 z m -6.71587,-12.222505 h 12.44575 v -0.576709 q 0,-1.897559 -0.74414,-3.38584 -0.72553,-1.506885 -2.08359,-2.362646 -1.35806,-0.874365 -3.23701,-0.874365 -1.71153,0 -3.10679,0.948779 -1.39526,0.930176 -2.26963,2.530078 -0.87436,1.599902 -1.0604,3.627685 z"
         id="path2219"
         style="fill:#385c43;fill-opacity:1" />
      <path
         d="m 218.0951,103.09526 q -2.0836,0 -3.19981,-1.32085 -1.11621,-1.32085 -1.11621,-4.2416 V 84.045261 h -3.57187 v -1.451074 h 3.57187 v -5.283398 h 1.69292 v 5.283398 h 4.79971 v 1.451074 H 215.472 V 97.53281 q 0,2.213818 0.76275,3.1812 0.78134,0.94878 2.06499,0.94878 0.59531,0 1.13481,-0.0558 0.55811,-0.0558 1.28364,-0.14883 l 0.27906,1.28364 q -0.63252,0.16744 -1.35806,0.26045 -0.72554,0.093 -1.54409,0.093 z"
         id="path2221"
         style="fill:#385c43;fill-opacity:1" />
      <path
         d="m 224.19705,102.72319 v -1.33945 l 3.03237,-0.13023 V 84.063865 l -3.03237,-0.130225 v -1.339453 h 4.46485 l 0.22324,3.255615 v 0.613916 q 0.83716,-2.009179 2.39985,-3.12539 1.5627,-1.116211 3.77651,-1.116211 0.46509,0 1.0232,0.09302 0.5581,0.07442 0.81855,0.148829 l -0.20464,1.525488 -1.89755,-0.130225 q -2.38125,-0.03721 -3.88814,1.469678 -1.50688,1.488281 -2.00918,3.925342 v 11.999261 l 3.03237,0.13023 v 1.33945 z"
         id="path2223"
         style="fill:#385c43;fill-opacity:1" />
      <path
         d="m 239.61936,102.72319 v -1.33945 l 3.03238,-0.13023 V 84.063865 l -3.03238,-0.130225 v -1.339453 h 4.70669 v 18.659323 l 3.03238,0.13023 v 1.33945 z m 2.73472,-26.082128 v -2.939355 h 1.97197 v 2.939355 z"
         id="path2225"
         style="fill:#385c43;fill-opacity:1" />
      <path
         d="m 258.52053,103.09526 q -2.08359,0 -3.1998,-1.32085 -1.11621,-1.32085 -1.11621,-4.2416 V 84.045261 h -3.57188 v -1.451074 h 3.57188 v -5.283398 h 1.69292 v 5.283398 h 4.79971 v 1.451074 h -4.79971 V 97.53281 q 0,2.213818 0.76274,3.1812 0.78135,0.94878 2.06499,0.94878 0.59532,0 1.13482,-0.0558 0.5581,-0.0558 1.28364,-0.14883 l 0.27905,1.28364 q -0.63252,0.16744 -1.35805,0.26045 -0.72554,0.093 -1.5441,0.093 z"
         id="path2227"
         style="fill:#385c43;fill-opacity:1" />
      <path
         d="m 264.58528,102.72319 v -1.33945 l 3.03238,-0.13023 V 84.063865 l -3.03238,-0.130225 v -1.339453 h 4.70669 v 18.659323 l 3.03238,0.13023 v 1.33945 z M 267.32,76.641062 v -2.939355 h 1.97197 v 2.939355 z"
         id="path2229"
         style="fill:#385c43;fill-opacity:1" />
      <path
         d="m 283.7469,103.11386 q -2.1394,0 -3.98115,-0.63252 -1.82314,-0.63251 -3.25561,-1.78593 l -0.0186,-3.888137 h 1.45108 l 0.16743,2.995165 q 1.09761,0.985982 2.54868,1.432472 1.45107,0.42788 3.08818,0.42788 2.66031,0 4.12998,-1.19062 1.46968,-1.19063 1.46968,-2.790532 0,-1.488281 -1.28364,-2.678906 -1.26504,-1.190625 -4.44624,-1.897559 -3.59048,-0.762744 -5.15317,-2.009179 -1.5627,-1.26504 -1.5627,-3.590479 0,-1.488281 0.81855,-2.678906 0.81856,-1.209228 2.34405,-1.897559 1.52549,-0.706933 3.59048,-0.706933 2.19521,0 3.83232,0.68833 1.63711,0.68833 2.79053,1.841748 l 0.0558,3.962549 h -1.45108 l -0.14882,-3.106787 q -0.89297,-0.930176 -2.1022,-1.413868 -1.20923,-0.502294 -2.97656,-0.502294 -2.47427,0 -3.77652,1.153418 -1.30224,1.134814 -1.30224,2.604492 0,0.985986 0.40927,1.730126 0.42788,0.744141 1.5813,1.339454 1.17202,0.576709 3.42305,1.079003 3.59048,0.818555 5.302,2.251026 1.73013,1.413867 1.73013,3.795117 0,2.399849 -1.93477,3.943949 -1.91616,1.52548 -5.33921,1.52548 z"
         id="path2231"
         style="fill:#385c43;fill-opacity:1" />
    </g>
  </g>
</svg>
