<?xml version="1.0" encoding="UTF-8" standalone="no"?>
<svg
   width="88.26873"
   height="50"
   viewBox="0 0 23.355499 13.229592"
   version="1.1"
   id="svg10"
   sodipodi:docname="logo-small.svg"
   inkscape:version="1.2.2 (b0a8486541, 2022-12-01)"
   xmlns:inkscape="http://www.inkscape.org/namespaces/inkscape"
   xmlns:sodipodi="http://sodipodi.sourceforge.net/DTD/sodipodi-0.dtd"
   xmlns="http://www.w3.org/2000/svg"
   xmlns:svg="http://www.w3.org/2000/svg">
  <defs
     id="defs14" />
  <sodipodi:namedview
     id="namedview12"
     pagecolor="#ffffff"
     bordercolor="#666666"
     borderopacity="1.0"
     inkscape:showpageshadow="2"
     inkscape:pageopacity="0.0"
     inkscape:pagecheckerboard="0"
     inkscape:deskcolor="#d1d1d1"
     showgrid="false"
     inkscape:zoom="12.040816"
     inkscape:cx="8.80339"
     inkscape:cy="9.8000002"
     inkscape:window-width="1920"
     inkscape:window-height="1026"
     inkscape:window-x="0"
     inkscape:window-y="26"
     inkscape:window-maximized="1"
     inkscape:current-layer="svg10" />
  <g
     id="g247">
    <path
       d="m 11.456302,2.2570355 h 8.90954 v 8.7121855 h -8.90954 z"
       style="opacity:1;fill:#385c43;fill-opacity:1;stroke:#385c43;stroke-width:0.273154;stroke-linecap:round;stroke-linejoin:round;stroke-dasharray:none;stroke-opacity:1"
       id="path2" />
    <path
       d="M 13.41278,10.038111 V 9.7859355 h 0.786063 V 3.4427463 H 13.41278 V 3.1881458 h 2.732623 q 0.726551,0 1.232408,0.2449014 0.505858,0.2400519 0.766225,0.6813594 0.262848,0.436458 0.262848,1.0256762 0,0.5989174 -0.262848,1.0426496 -0.260367,0.436458 -0.766225,0.6765099 -0.505857,0.2400519 -1.232408,0.2400519 h -1.686192 v 2.6866413 h 0.783584 v 0.2521755 z m 1.043952,-3.1934173 h 1.688671 q 0.996837,0 1.497735,-0.4849533 0.505858,-0.4849533 0.505858,-1.2099585 0,-0.7419786 -0.500898,-1.2220823 Q 17.1472,3.4427463 16.145403,3.4427463 h -1.686192 z"
       style="font-weight:100;font-size:16.9333px;line-height:1.25;font-family:'Roboto Slab';-inkscape-font-specification:'Roboto Slab Thin';fill:#fefefe;fill-opacity:1;stroke-width:0.15226"
       id="path4" />
    <path
       d="M 2.8492844,10.038111 V 9.7859355 H 3.4022562 L 5.7430872,6.5440226 3.4989642,3.4403215 H 2.9459925 V 3.1881458 H 4.6197859 V 3.4427463 H 3.8213244 L 5.9017876,6.3451918 7.9847306,3.4427463 H 7.1912285 V 3.1881458 h 1.668834 V 3.4427463 H 8.3070908 L 6.0679271,6.5440226 8.4087582,9.7859355 H 8.96173 V 10.038111 H 7.2904162 V 9.7859355 H 8.0839183 L 5.9017876,6.7404287 3.719657,9.7859355 h 0.793502 v 0.2521755 z"
       style="font-weight:100;font-size:16.9333px;line-height:1.25;font-family:'Roboto Slab';-inkscape-font-specification:'Roboto Slab Thin';fill:#010101;fill-opacity:1;stroke-width:0.15226"
       id="path6" />
    <path
       d="M 0.35167849,0.35164364 H 23.00382 V 12.878056 H 0.35167849 Z"
       style="opacity:1;fill:none;fill-opacity:1;stroke:#385c43;stroke-width:0.703357;stroke-linecap:round;stroke-linejoin:round;stroke-dasharray:none;stroke-opacity:1"
       id="path8" />
  </g>
</svg>
