<svg xmlns="http://www.w3.org/2000/svg" width="106.658" height="18.935" viewBox="0 0 28.22 5.01"><path d="M31.629 85.241h13.392v3.557H31.629z" style="opacity:1;fill:#385c43;fill-opacity:1;stroke:#385c43;stroke-width:.214;stroke-linecap:round;stroke-linejoin:round;stroke-dasharray:none;stroke-opacity:1" transform="translate(-17.519 -84.514)"/><g style="fill:#fefefe;fill-opacity:1"><path d="M32.049 88.513v-.105h.316v-2.616h-.316v-.105h1.102q.293 0 .497.101.204.1.308.282.107.18.107.423 0 .246-.107.428-.104.18-.308.28-.204.099-.497.099h-.681v1.108h.316v.105zm.421-1.318h.681q.402 0 .604-.2.203-.2.203-.499 0-.306-.202-.504-.201-.2-.605-.2h-.681zM35.416 88.553q-.253 0-.45-.128-.199-.13-.313-.357-.115-.229-.115-.526v-.124q0-.3.111-.535.11-.237.303-.373.194-.136.438-.136.237 0 .414.107.178.105.275.297.1.192.1.454v.16h-1.536v.15q0 .26.1.466.098.204.273.322.174.118.4.118.2 0 .353-.067.155-.07.275-.189l.057.082q-.13.124-.295.202-.165.077-.39.077zm-.751-1.265h1.408v-.064q0-.213-.085-.382-.083-.169-.237-.266-.153-.097-.36-.097-.199 0-.358.105-.159.105-.258.285t-.116.407zM37.37 88.553q-.212 0-.323-.137-.108-.138-.108-.445V86.52h-.388v-.107h.388v-.567h.107v.567h.516v.107h-.516v1.451q0 .258.087.369.087.108.23.108.063 0 .111-.003.049-.004.134-.014l.02.095q-.059.016-.12.021-.06.006-.138.006zM37.992 88.513v-.105h.317v-1.89h-.317v-.105h.402l.02.365v.072q.087-.226.26-.35.172-.126.425-.126.044 0 .1.008.059.008.086.015l-.012.094-.174-.014q-.282 0-.458.182-.175.18-.227.478v1.27h.316v.106zM39.59 86.413v.105h.316v1.89h-.317v.105h.738v-.105h-.317v-1.995zM41.543 88.553q-.211 0-.322-.137-.108-.138-.108-.445V86.52h-.388v-.107h.388v-.567h.106v.567h.517v.107h-.517v1.451q0 .258.088.369.087.108.23.108.063 0 .111-.003.049-.004.134-.014l.02.095q-.059.016-.12.021-.06.006-.138.006zM42.166 86.413v.105h.317v1.89h-.317v.105h.738v-.105h-.317v-1.995zM44.12 88.553q-.229 0-.423-.073-.192-.074-.322-.204V87.9h.105v.317q.115.122.283.176.17.054.357.054.291 0 .462-.135.171-.136.171-.315 0-.167-.144-.302-.141-.138-.496-.216-.371-.077-.53-.204-.157-.126-.157-.366 0-.152.081-.272.082-.122.233-.192.153-.072.363-.072.225 0 .396.078.172.077.29.207v.392h-.104v-.34q-.1-.112-.239-.172-.137-.06-.343-.06-.285 0-.429.132-.143.132-.143.295 0 .112.046.198.049.085.18.153.132.066.387.122.353.078.533.223.18.146.18.398 0 .247-.201.4-.202.153-.536.153zM39.818 85.485v.272h.14v-.272zM42.395 85.485v.272h.14v-.272z" style="font-weight:100;font-size:16.9333px;line-height:1.25;font-family:&quot;Roboto Slab&quot;;-inkscape-font-specification:&quot;Roboto Slab Thin&quot;;fill:#fefefe;fill-opacity:1;stroke-width:.0620943" transform="translate(-17.647 -84.514)"/></g><path d="M18.4 88.513v-.105h.223l.943-1.337-.904-1.279h-.223v-.105h.675v.105h-.322l.838 1.197.84-1.197h-.32v-.105h.673v.105H20.6l-.902 1.279.943 1.337h.223v.105h-.673v-.105h.32l-.881-1.256-.879 1.256h.32v.105zM22.009 88.553q-.252 0-.45-.128-.198-.13-.313-.357-.114-.229-.114-.526v-.124q0-.3.11-.535.111-.237.303-.373.194-.136.439-.136.237 0 .413.107.179.105.276.297.099.192.099.454v.16h-1.535v.15q0 .26.099.466.099.204.273.322.175.118.4.118.2 0 .353-.067.155-.07.276-.189l.056.082q-.13.124-.295.202-.165.077-.39.077zm-.75-1.265h1.408v-.064q0-.213-.086-.382-.083-.169-.236-.266-.154-.097-.361-.097-.198 0-.357.105-.16.105-.258.285-.1.18-.117.407zM23.19 88.513v-.105h.317v-1.89h-.316v-.105h.405l.014.433q.095-.225.277-.348.183-.124.45-.124.344 0 .515.217.172.216.172.685v1.132h.317v.105h-.738v-.105h.317v-1.135q0-.437-.157-.616-.156-.178-.423-.178-.34 0-.513.204-.172.201-.215.518v1.207h.316v.105zM25.752 86.413v.105h.316v1.89h-.316v.105h.738v-.105h-.317v-1.995zM27.885 88.553q-.274 0-.482-.134-.207-.134-.324-.37-.116-.237-.116-.546v-.081q0-.309.116-.543.117-.237.323-.371.207-.134.479-.134.273 0 .48.134.207.134.323.37.117.235.117.544v.081q0 .309-.117.546-.116.236-.324.37-.206.134-.475.134zm0-.105q.246 0 .429-.126.182-.128.28-.341.102-.216.102-.478v-.081q0-.258-.101-.472-.101-.215-.285-.343-.183-.128-.43-.128-.246 0-.43.128-.182.128-.283.343-.1.214-.1.472v.081q0 .264.1.48.1.213.283.34.184.125.435.125zM29.947 88.553q-.229 0-.423-.073-.192-.074-.322-.204V87.9h.105v.317q.115.122.283.176.17.054.357.054.291 0 .462-.135.171-.136.171-.315 0-.167-.144-.302-.141-.138-.496-.216-.371-.077-.53-.204-.157-.126-.157-.366 0-.152.081-.272.082-.122.233-.192.153-.072.363-.072.225 0 .396.078.172.077.29.207v.392h-.104v-.34q-.1-.112-.239-.172-.137-.06-.343-.06-.285 0-.429.132-.143.132-.143.295 0 .112.046.198.049.085.18.153.132.066.387.122.353.078.533.223.18.146.18.398 0 .247-.201.4-.202.153-.536.153z" style="font-weight:100;font-size:16.9333px;line-height:1.25;font-family:&quot;Roboto Slab&quot;;-inkscape-font-specification:&quot;Roboto Slab Thin&quot;;fill:#010101;fill-opacity:1;stroke-width:.0620943" transform="translate(-17.519 -84.514)"/><path d="M26.051 85.485v.272h.14v-.272z" style="font-weight:100;font-size:16.9333px;line-height:1.25;font-family:&quot;Roboto Slab&quot;;-inkscape-font-specification:&quot;Roboto Slab Thin&quot;;fill:#385c43;fill-opacity:1;stroke-width:.0620943" transform="translate(-17.519 -84.514)"/><path d="M17.625 84.62h28.008v4.798H17.625z" style="opacity:1;fill:none;fill-opacity:1;stroke:#385c43;stroke-width:.211667;stroke-linecap:round;stroke-linejoin:round;stroke-dasharray:none;stroke-opacity:1" transform="translate(-17.519 -84.514)"/></svg>