<svg xmlns="http://www.w3.org/2000/svg" width="34.6" height="19.6" viewBox="0 0 9.155 5.186"><path d="M21.238 92.295h3.593v3.593h-3.593z" style="opacity:1;fill:#385c43;fill-opacity:1;stroke:#385c43;stroke-width:.111397;stroke-linecap:round;stroke-linejoin:round;stroke-dasharray:none;stroke-opacity:1" transform="matrix(.97197 0 0 .95044 -16.152 -86.836)"/><path d="M22.027 95.504V95.4h.317v-2.616h-.317v-.105h1.102q.293 0 .497.101.204.099.309.281.106.18.106.423 0 .247-.106.43-.105.18-.309.279-.204.099-.497.099h-.68V95.4h.316v.104zm.421-1.317h.681q.402 0 .604-.2.204-.2.204-.499 0-.306-.202-.504-.202-.2-.606-.2h-.68z" style="font-weight:100;font-size:16.9333px;line-height:1.25;font-family:&quot;Roboto Slab&quot;;-inkscape-font-specification:&quot;Roboto Slab Thin&quot;;fill:#fefefe;fill-opacity:1;stroke-width:.0620943" transform="matrix(.97197 0 0 .95044 -16.152 -86.836)"/><path d="M17.767 95.504V95.4h.223l.944-1.337-.905-1.28h-.223v-.104h.675v.105h-.322l.839 1.197.84-1.197h-.32v-.105h.673v.105h-.223l-.903 1.279.944 1.337h.223v.104h-.674V95.4h.32l-.88-1.256-.88 1.256h.32v.104z" style="font-weight:100;font-size:16.9333px;line-height:1.25;font-family:&quot;Roboto Slab&quot;;-inkscape-font-specification:&quot;Roboto Slab Thin&quot;;fill:#010101;fill-opacity:1;stroke-width:.0620943" transform="matrix(.97197 0 0 .95044 -16.152 -86.836)"/><path d="M23.665 89.061h8.879v4.91h-8.879z" style="opacity:1;fill:none;fill-opacity:1;stroke:#385c43;stroke-width:.275696;stroke-linecap:round;stroke-linejoin:round;stroke-dasharray:none;stroke-opacity:1" transform="translate(-23.527 -88.923)"/></svg>