<?xml version="1.0" encoding="UTF-8" standalone="no"?>
<svg
   width="281.65213"
   height="50"
   viewBox="0 0 74.520648 13.22947"
   version="1.1"
   id="svg14"
   sodipodi:docname="logo-1.svg"
   inkscape:version="1.2.2 (b0a8486541, 2022-12-01)"
   xmlns:inkscape="http://www.inkscape.org/namespaces/inkscape"
   xmlns:sodipodi="http://sodipodi.sourceforge.net/DTD/sodipodi-0.dtd"
   xmlns="http://www.w3.org/2000/svg"
   xmlns:svg="http://www.w3.org/2000/svg">
  <defs
     id="defs18" />
  <sodipodi:namedview
     id="namedview16"
     pagecolor="#ffffff"
     bordercolor="#666666"
     borderopacity="1.0"
     inkscape:showpageshadow="2"
     inkscape:pageopacity="0.0"
     inkscape:pagecheckerboard="0"
     inkscape:deskcolor="#d1d1d1"
     showgrid="false"
     inkscape:zoom="11.775957"
     inkscape:cx="47.894196"
     inkscape:cy="23.012991"
     inkscape:window-width="1920"
     inkscape:window-height="1026"
     inkscape:window-x="0"
     inkscape:window-y="26"
     inkscape:window-maximized="1"
     inkscape:current-layer="svg14" />
  <g
     id="g313"
     transform="matrix(2.6407882,0,0,2.6407882,-7.2700671e-4,-4.3968959e-4)">
    <path
       d="m 31.629,85.241 h 13.392 v 3.557 H 31.629 Z"
       style="opacity:1;fill:#385c43;fill-opacity:1;stroke:#385c43;stroke-width:0.214;stroke-linecap:round;stroke-linejoin:round;stroke-dasharray:none;stroke-opacity:1"
       transform="translate(-17.519,-84.514)"
       id="path2" />
    <g
       style="fill:#fefefe;fill-opacity:1"
       id="g6">
      <path
         d="m 32.049,88.513 v -0.105 h 0.316 v -2.616 h -0.316 v -0.105 h 1.102 q 0.293,0 0.497,0.101 0.204,0.1 0.308,0.282 0.107,0.18 0.107,0.423 0,0.246 -0.107,0.428 -0.104,0.18 -0.308,0.28 Q 33.444,87.3 33.151,87.3 H 32.47 v 1.108 h 0.316 v 0.105 z m 0.421,-1.318 h 0.681 q 0.402,0 0.604,-0.2 0.203,-0.2 0.203,-0.499 0,-0.306 -0.202,-0.504 -0.201,-0.2 -0.605,-0.2 H 32.47 Z m 2.946,1.358 q -0.253,0 -0.45,-0.128 -0.199,-0.13 -0.313,-0.357 -0.115,-0.229 -0.115,-0.526 v -0.124 q 0,-0.3 0.111,-0.535 0.11,-0.237 0.303,-0.373 0.194,-0.136 0.438,-0.136 0.237,0 0.414,0.107 0.178,0.105 0.275,0.297 0.1,0.192 0.1,0.454 v 0.16 h -1.536 v 0.15 q 0,0.26 0.1,0.466 0.098,0.204 0.273,0.322 0.174,0.118 0.4,0.118 0.2,0 0.353,-0.067 0.155,-0.07 0.275,-0.189 l 0.057,0.082 q -0.13,0.124 -0.295,0.202 -0.165,0.077 -0.39,0.077 z m -0.751,-1.265 h 1.408 v -0.064 q 0,-0.213 -0.085,-0.382 -0.083,-0.169 -0.237,-0.266 -0.153,-0.097 -0.36,-0.097 -0.199,0 -0.358,0.105 -0.159,0.105 -0.258,0.285 -0.099,0.18 -0.116,0.407 z m 2.705,1.265 q -0.212,0 -0.323,-0.137 -0.108,-0.138 -0.108,-0.445 V 86.52 h -0.388 v -0.107 h 0.388 v -0.567 h 0.107 v 0.567 h 0.516 v 0.107 h -0.516 v 1.451 q 0,0.258 0.087,0.369 0.087,0.108 0.23,0.108 0.063,0 0.111,-0.003 0.049,-0.004 0.134,-0.014 l 0.02,0.095 q -0.059,0.016 -0.12,0.021 -0.06,0.006 -0.138,0.006 z m 0.622,-0.04 v -0.105 h 0.317 v -1.89 h -0.317 v -0.105 h 0.402 l 0.02,0.365 v 0.072 q 0.087,-0.226 0.26,-0.35 0.172,-0.126 0.425,-0.126 0.044,0 0.1,0.008 0.059,0.008 0.086,0.015 l -0.012,0.094 -0.174,-0.014 q -0.282,0 -0.458,0.182 -0.175,0.18 -0.227,0.478 v 1.27 h 0.316 v 0.106 z m 1.598,-2.1 v 0.105 h 0.316 v 1.89 h -0.317 v 0.105 h 0.738 V 88.408 H 40.01 v -1.995 z m 1.953,2.14 q -0.211,0 -0.322,-0.137 -0.108,-0.138 -0.108,-0.445 V 86.52 h -0.388 v -0.107 h 0.388 v -0.567 h 0.106 v 0.567 h 0.517 v 0.107 h -0.517 v 1.451 q 0,0.258 0.088,0.369 0.087,0.108 0.23,0.108 0.063,0 0.111,-0.003 0.049,-0.004 0.134,-0.014 l 0.02,0.095 q -0.059,0.016 -0.12,0.021 -0.06,0.006 -0.138,0.006 z m 0.623,-2.14 v 0.105 h 0.317 v 1.89 h -0.317 v 0.105 h 0.738 v -0.105 h -0.317 v -1.995 z m 1.954,2.14 q -0.229,0 -0.423,-0.073 -0.192,-0.074 -0.322,-0.204 V 87.9 h 0.105 v 0.317 q 0.115,0.122 0.283,0.176 0.17,0.054 0.357,0.054 0.291,0 0.462,-0.135 0.171,-0.136 0.171,-0.315 0,-0.167 -0.144,-0.302 -0.141,-0.138 -0.496,-0.216 -0.371,-0.077 -0.53,-0.204 -0.157,-0.126 -0.157,-0.366 0,-0.152 0.081,-0.272 0.082,-0.122 0.233,-0.192 0.153,-0.072 0.363,-0.072 0.225,0 0.396,0.078 0.172,0.077 0.29,0.207 v 0.392 h -0.104 v -0.34 q -0.1,-0.112 -0.239,-0.172 -0.137,-0.06 -0.343,-0.06 -0.285,0 -0.429,0.132 -0.143,0.132 -0.143,0.295 0,0.112 0.046,0.198 0.049,0.085 0.18,0.153 0.132,0.066 0.387,0.122 0.353,0.078 0.533,0.223 0.18,0.146 0.18,0.398 0,0.247 -0.201,0.4 -0.202,0.153 -0.536,0.153 z m -4.302,-3.068 v 0.272 h 0.14 v -0.272 z m 2.577,0 v 0.272 h 0.14 v -0.272 z"
         style="font-weight:100;font-size:16.9333px;line-height:1.25;font-family:'Roboto Slab';-inkscape-font-specification:'Roboto Slab Thin';fill:#fefefe;fill-opacity:1;stroke-width:0.0620943"
         transform="translate(-17.647,-84.514)"
         id="path4" />
    </g>
    <path
       d="m 18.4,88.513 v -0.105 h 0.223 l 0.943,-1.337 -0.904,-1.279 h -0.223 v -0.105 h 0.675 v 0.105 h -0.322 l 0.838,1.197 0.84,-1.197 h -0.32 v -0.105 h 0.673 v 0.105 H 20.6 l -0.902,1.279 0.943,1.337 h 0.223 v 0.105 h -0.673 v -0.105 h 0.32 l -0.881,-1.256 -0.879,1.256 h 0.32 v 0.105 z m 3.609,0.04 q -0.252,0 -0.45,-0.128 -0.198,-0.13 -0.313,-0.357 -0.114,-0.229 -0.114,-0.526 v -0.124 q 0,-0.3 0.11,-0.535 0.111,-0.237 0.303,-0.373 0.194,-0.136 0.439,-0.136 0.237,0 0.413,0.107 0.179,0.105 0.276,0.297 0.099,0.192 0.099,0.454 v 0.16 h -1.535 v 0.15 q 0,0.26 0.099,0.466 0.099,0.204 0.273,0.322 0.175,0.118 0.4,0.118 0.2,0 0.353,-0.067 0.155,-0.07 0.276,-0.189 l 0.056,0.082 q -0.13,0.124 -0.295,0.202 -0.165,0.077 -0.39,0.077 z m -0.75,-1.265 h 1.408 v -0.064 q 0,-0.213 -0.086,-0.382 -0.083,-0.169 -0.236,-0.266 -0.154,-0.097 -0.361,-0.097 -0.198,0 -0.357,0.105 -0.16,0.105 -0.258,0.285 -0.1,0.18 -0.117,0.407 z m 1.931,1.225 v -0.105 h 0.317 v -1.89 h -0.316 v -0.105 h 0.405 l 0.014,0.433 q 0.095,-0.225 0.277,-0.348 0.183,-0.124 0.45,-0.124 0.344,0 0.515,0.217 0.172,0.216 0.172,0.685 v 1.132 h 0.317 v 0.105 h -0.738 v -0.105 h 0.317 v -1.135 q 0,-0.437 -0.157,-0.616 -0.156,-0.178 -0.423,-0.178 -0.34,0 -0.513,0.204 -0.172,0.201 -0.215,0.518 v 1.207 h 0.316 v 0.105 z m 2.562,-2.1 v 0.105 h 0.316 v 1.89 h -0.316 v 0.105 h 0.738 v -0.105 h -0.317 v -1.995 z m 2.133,2.14 q -0.274,0 -0.482,-0.134 -0.207,-0.134 -0.324,-0.37 -0.116,-0.237 -0.116,-0.546 v -0.081 q 0,-0.309 0.116,-0.543 0.117,-0.237 0.323,-0.371 0.207,-0.134 0.479,-0.134 0.273,0 0.48,0.134 0.207,0.134 0.323,0.37 0.117,0.235 0.117,0.544 v 0.081 q 0,0.309 -0.117,0.546 -0.116,0.236 -0.324,0.37 -0.206,0.134 -0.475,0.134 z m 0,-0.105 q 0.246,0 0.429,-0.126 0.182,-0.128 0.28,-0.341 0.102,-0.216 0.102,-0.478 v -0.081 q 0,-0.258 -0.101,-0.472 -0.101,-0.215 -0.285,-0.343 -0.183,-0.128 -0.43,-0.128 -0.246,0 -0.43,0.128 -0.182,0.128 -0.283,0.343 -0.1,0.214 -0.1,0.472 v 0.081 q 0,0.264 0.1,0.48 0.1,0.213 0.283,0.34 0.184,0.125 0.435,0.125 z m 2.062,0.105 q -0.229,0 -0.423,-0.073 -0.192,-0.074 -0.322,-0.204 V 87.9 h 0.105 v 0.317 q 0.115,0.122 0.283,0.176 0.17,0.054 0.357,0.054 0.291,0 0.462,-0.135 0.171,-0.136 0.171,-0.315 0,-0.167 -0.144,-0.302 -0.141,-0.138 -0.496,-0.216 -0.371,-0.077 -0.53,-0.204 -0.157,-0.126 -0.157,-0.366 0,-0.152 0.081,-0.272 0.082,-0.122 0.233,-0.192 0.153,-0.072 0.363,-0.072 0.225,0 0.396,0.078 0.172,0.077 0.29,0.207 v 0.392 h -0.104 v -0.34 q -0.1,-0.112 -0.239,-0.172 -0.137,-0.06 -0.343,-0.06 -0.285,0 -0.429,0.132 -0.143,0.132 -0.143,0.295 0,0.112 0.046,0.198 0.049,0.085 0.18,0.153 0.132,0.066 0.387,0.122 0.353,0.078 0.533,0.223 0.18,0.146 0.18,0.398 0,0.247 -0.201,0.4 -0.202,0.153 -0.536,0.153 z"
       style="font-weight:100;font-size:16.9333px;line-height:1.25;font-family:'Roboto Slab';-inkscape-font-specification:'Roboto Slab Thin';fill:#010101;fill-opacity:1;stroke-width:0.0620943"
       transform="translate(-17.519,-84.514)"
       id="path8" />
    <path
       d="m 26.051,85.485 v 0.272 h 0.14 v -0.272 z"
       style="font-weight:100;font-size:16.9333px;line-height:1.25;font-family:'Roboto Slab';-inkscape-font-specification:'Roboto Slab Thin';fill:#385c43;fill-opacity:1;stroke-width:0.0620943"
       transform="translate(-17.519,-84.514)"
       id="path10" />
    <path
       d="m 17.625,84.62 h 28.008 v 4.798 H 17.625 Z"
       style="opacity:1;fill:none;fill-opacity:1;stroke:#385c43;stroke-width:0.211667;stroke-linecap:round;stroke-linejoin:round;stroke-dasharray:none;stroke-opacity:1"
       transform="translate(-17.519,-84.514)"
       id="path12" />
  </g>
</svg>
