<svg xmlns="http://www.w3.org/2000/svg" version="1.1" xmlns:xlink="http://www.w3.org/1999/xlink" xmlns:svgjs="http://svgjs.com/svgjs" width="70" height="70"><svg xmlns="http://www.w3.org/2000/svg" xml:space="preserve" width="70" height="70" viewBox="0 0 18.521 18.52"><path d="M15.348 5.299c-.365.119-.426 1.626-.588 2.11-.16.596-1.351 2.173-1.586 1.019-.4-.478-.047-1.57-.2-1.71-.329-.962-.874.921-.898 1.36-.323.845-.472 2.722-1.662 2.35-.986-.088-1.288-.895-.743-1.51.617-.543.918-1.026 1.497-1.267-.23-.308.735-.408.572-.947-.417-.76-1.632 1.188-2.21 1.528-.62 1.499-1.18.08-1.636-.706-.476-1.002.044.386-.265-.17-.783-1.44-.82.764-.118 1.22 1.141.728-1.946 2.23-1.029.702.443-1.018-.061-2.403-1.229-2.504-1.27.05-1.75 1.46-2.172 2.473-.898 1.13-.386 3.548 1.346 2.968 1.318-.25 1.544-1.943 2.92-2.209.817-1.086 1.226.08.39.704-.569.62-1.742 2.531-.357 2.213.686-.57.238-1.181.926-1.914.614-1.378 1.9 1.38 2.96.039.494-.233.935-2.38 1.787-1.452 1.13-.122 1.931-1.36 2.231-2.427.19.321-.363 2.442-.463 3.473.072 1.621-.536 3.052-1.666 4.194-.76.877-2.743 2.656-1.388 3.684v-.001c.669.008 1.009-1.02 1.564-1.377.736-1.16 1.152-2.516 1.608-3.808l.11-.334.233-1.414.03.016c.044-.57.281-1.565.207-2.117.003-1.237.507-2.607.31-3.753-.204-.358-.36-.473-.481-.433zm-3.051 1.188c-.026.007-.044.037-.037.103.26.042.114-.127.037-.103zm-7.153.87c.824.57 1.292 2.824.082 3.131v-.001c-.497.118-1.063.021-1.55-.117-.541-.378-.024-.995.035-1.5.187-.35.523-1.522 1.433-1.513Zm7.91.086c-.005-.002-.013.004-.025.026.024.061.04-.019.025-.026zm-5.803.112c.008-.003.019.002.035.022-.04.066-.056-.012-.035-.022zm-1.179.116c.03-.003.115.19.222.707-.209-.378-.26-.704-.222-.707zm7.009.119c-.007-.005-.017.007-.028.049.05.116.05-.036.028-.05zm-5.039.296c.07.008.31.238.51.666-.478-.459-.58-.673-.51-.666zm6.05 1.084c-.015.007-.041.037-.083.105.073.054.13-.126.084-.105zm-.13.243a.315.315 0 0 0-.103.004.202.202 0 0 0-.128.075c.316-.017.314-.068.23-.08zM3.324 10.72c.242-.01.655.14 1.004.224.91-.18 1.477.133.344.705-.4.16-1.097.298-1.329-.192-.332-.556-.261-.727-.02-.737Zm1.19.47c-.014.002-.021.02-.005.065.173.055.051-.074.006-.066zm3.653.251c-.012.01-.025.039-.034.102.101.024.07-.13.034-.102zm0 .19c-.027.011-.077.04-.07.053.1-.06.096-.065.07-.053zm-.162.123c-.047-.001-.094.054-.075.221.228-.06.152-.219.075-.22zm6.237 2.42c-.448 1.439-1.055 2.804-2.198 3.776-.617.34-.106-.754-.084-.98a49.87 57.662 0 0 1 2.282-2.795z" style="fill:#48486f;fill-opacity:1;stroke-width:.0228255"></path></svg><style>@media (prefers-color-scheme: light) { :root { filter: none; } }
@media (prefers-color-scheme: dark) { :root { filter: contrast(0.3846153846153846) brightness(4.5); } }
</style></svg>