<?xml version="1.0" encoding="UTF-8" standalone="no"?>
<svg
   xmlns:dc="http://purl.org/dc/elements/1.1/"
   xmlns:cc="http://creativecommons.org/ns#"
   xmlns:rdf="http://www.w3.org/1999/02/22-rdf-syntax-ns#"
   xmlns:svg="http://www.w3.org/2000/svg"
   xmlns="http://www.w3.org/2000/svg"
   xmlns:sodipodi="http://sodipodi.sourceforge.net/DTD/sodipodi-0.dtd"
   xmlns:inkscape="http://www.inkscape.org/namespaces/inkscape"
   width="49.999996"
   height="50.000019"
   viewBox="0 0 13.228962 13.228809"
   xml:space="preserve"
   version="1.1"
   id="svg10"
   sodipodi:docname="logo.svg"
   inkscape:version="1.0.2 (e86c870879, 2021-01-15)"><metadata
     id="metadata82"><rdf:RDF><cc:Work
         rdf:about=""><dc:format>image/svg+xml</dc:format><dc:type
           rdf:resource="http://purl.org/dc/dcmitype/StillImage" /><dc:title></dc:title></cc:Work></rdf:RDF></metadata><defs
     id="defs14" /><sodipodi:namedview
     id="namedview12"
     pagecolor="#ffffff"
     bordercolor="#666666"
     borderopacity="1.0"
     inkscape:showpageshadow="2"
     inkscape:pageopacity="0.0"
     inkscape:pagecheckerboard="0"
     inkscape:deskcolor="#d1d1d1"
     showgrid="false"
     inkscape:zoom="5.986611"
     inkscape:cx="33.136949"
     inkscape:cy="21.173814"
     inkscape:window-width="1200"
     inkscape:window-height="670"
     inkscape:window-x="0"
     inkscape:window-y="0"
     inkscape:window-maximized="1"
     inkscape:current-layer="svg10"
     inkscape:document-rotation="0"
     fit-margin-top="0"
     fit-margin-left="0"
     fit-margin-right="0"
     fit-margin-bottom="0" /><path
     id="path2"
     style="fill:#48486f;fill-opacity:1;stroke-width:0.0228255"
     inkscape:transform-center-x="1.0517999"
     inkscape:transform-center-y="-0.56198324"
     d="M 12.702251,0.00736148 C 12.337558,0.12623518 12.276281,1.6336539 12.11377,2.1179726 11.954976,2.7133981 10.762994,4.2908515 10.528097,3.1359692 10.128314,2.6581262 10.481148,1.5673419 10.328351,1.4259837 9.9995928,0.46432048 9.4537412,2.3479282 9.4302639,2.7868657 9.1074533,3.6314694 8.9586242,5.5089302 7.7677655,5.1373191 6.7822464,5.0485976 6.4797241,4.241438 7.0256339,3.6263132 7.6427029,3.0834717 7.9428628,2.6006544 8.5221896,2.3595914 8.2927595,2.0518907 9.2572587,1.951546 9.0937696,1.412659 8.6774952,0.65151328 7.4624635,2.6005889 6.8850436,2.9405425 6.2643546,4.4394681 5.7046672,3.0211165 5.2486655,2.2343407 4.7720569,1.2321893 5.2924484,2.6208821 4.9836185,2.0637863 4.2005078,0.62364918 4.1623045,2.8286179 4.8653077,3.2843161 6.006625,4.012821 2.9190496,5.5144472 3.8366178,3.9860767 4.2790085,2.9684125 3.7748091,1.5830402 2.6074137,1.4828351 1.3372874,1.5316319 0.85806604,2.9433392 0.43479561,3.9558744 -0.46241865,5.0849944 0.04930636,7.5033952 1.7815423,6.9236992 3.0992083,6.6735442 3.324906,4.980117 4.7009016,4.714486 5.5183285,3.6286983 5.9268337,4.7942982 5.0904058,5.4180232 4.5224719,6.0385422 3.3496577,7.9499212 4.7347049,7.6316772 5.4200551,7.0623192 4.9726658,6.4501962 5.6604493,5.7173822 6.2738582,4.3395769 7.5596666,7.0975812 8.6205256,5.7564722 9.1137416,5.5232962 9.5554626,3.3756564 10.406713,4.3040947 11.537495,4.1825058 12.338667,2.9437671 12.638487,1.877247 12.827971,2.1987385 12.274952,4.3192113 12.175231,5.3505171 12.247361,6.9717282 11.639693,8.4027632 10.509659,9.5442022 9.7489881,10.421033 7.7658047,12.200304 9.1214267,13.228888 v -0.0018 c 0.668475,0.0086 1.0086373,-1.018734 1.5633933,-1.376871 0.736442,-1.159423 1.15206,-2.5156368 1.608722,-3.8081608 l 0.109859,-0.333114 v -8.88e-4 l 0.232781,-1.413292 0.02996,0.01599 c 0.04433,-0.569667 0.281231,-1.5651136 0.207428,-2.1177177 0.0029,-1.2363295 0.506899,-2.606255 0.309606,-3.75219752 -0.203923,-0.3581451 -0.35936,-0.4731001 -0.480925,-0.4334755 z M 9.6507529,1.1950243 c -0.025773,0.00791 -0.043796,0.037539 -0.036877,0.1030435 0.2599099,0.04205 0.1142055,-0.1267483 0.036877,-0.1030435 z M 2.4983218,2.0655628 c 0.8238209,0.5707138 1.2917428,2.8234773 0.082203,3.1312725 v -0.00178 C 2.0833573,5.3137656 1.5174663,5.2164977 1.0309595,5.0786911 0.48904496,4.7005483 1.0059107,4.0835638 1.0647627,3.5783451 1.2520294,3.2279731 1.5883659,2.0566039 2.4983218,2.0655628 Z m 7.9099282,0.086165 c -0.0048,-0.00225 -0.01296,0.0038 -0.02535,0.025761 0.02465,0.061066 0.04001,-0.019029 0.02535,-0.025761 z M 4.6056385,2.2636547 c 0.00707,-0.0032 0.018614,0.00167 0.034572,0.021319 -0.039285,0.066079 -0.05582,-0.011724 -0.034572,-0.021319 z M 3.4263709,2.3791342 c 0.030044,-0.00248 0.1151017,0.1908827 0.2220249,0.70709 C 3.4396324,2.7089473 3.3877443,2.3823224 3.4263709,2.3791342 Z m 7.0087671,0.1190329 c -0.0071,-0.00433 -0.01686,0.00734 -0.02766,0.048857 0.04886,0.116254 0.04899,-0.035879 0.02766,-0.048857 z M 5.3961701,2.7948604 c 0.069413,0.00772 0.3092456,0.2374545 0.5108882,0.6653401 C 5.4277722,3.0014596 5.3267596,2.7871468 5.3961701,2.7948604 Z m 6.0507569,1.0837315 c -0.01541,0.00712 -0.04214,0.036844 -0.08374,0.10482 0.07308,0.054094 0.129971,-0.1261529 0.08374,-0.10482 z m -0.131371,0.242507 c -0.02789,-0.00387 -0.0651,-0.00317 -0.102177,0.00444 -0.04944,0.010159 -0.09905,0.032538 -0.128299,0.074617 0.316518,-0.01633 0.314162,-0.067461 0.230476,-0.079059 z M 0.67909992,5.4295712 c 0.24197069,-0.010203 0.65467368,0.139908 1.00410598,0.223853 0.9106248,-0.180225 1.4771953,0.133224 0.3441772,0.705313 -0.3998666,0.160459 -1.09690439,0.297946 -1.32907688,-0.191873 -0.33216411,-0.556648 -0.26117698,-0.72709 -0.0192063,-0.737293 z m 1.19079138,0.469025 c -0.015117,0.0028 -0.022158,0.02048 -0.00615,0.06573 0.1739039,0.05499 0.051496,-0.074 0.00615,-0.06573 z m 3.6522723,0.252278 c -0.012146,0.0092 -0.024954,0.03854 -0.033803,0.101267 0.1009902,0.02452 0.070337,-0.128888 0.033803,-0.101267 z m -7.681e-4,0.189209 c -0.02658,0.01172 -0.07583,0.04096 -0.069142,0.0533 0.099631,-0.05922 0.095723,-0.06502 0.069142,-0.0533 z m -0.161333,0.123474 c -0.046397,-0.0013 -0.093679,0.05401 -0.075289,0.221188 0.228363,-0.05962 0.152614,-0.218982 0.075289,-0.221188 z m 6.2366735,2.42063 C 11.149071,10.322231 10.542384,11.687908 9.398766,12.65948 8.7824113,12.999627 9.2935834,11.905906 9.315022,11.678792 a 49.86927,57.662084 0 0 1 2.28171,-2.7946048 z" /></svg>
