<?xml version="1.0" encoding="UTF-8" standalone="no"?>
<svg
   xmlns:dc="http://purl.org/dc/elements/1.1/"
   xmlns:cc="http://creativecommons.org/ns#"
   xmlns:rdf="http://www.w3.org/1999/02/22-rdf-syntax-ns#"
   xmlns:svg="http://www.w3.org/2000/svg"
   xmlns="http://www.w3.org/2000/svg"
   xmlns:sodipodi="http://sodipodi.sourceforge.net/DTD/sodipodi-0.dtd"
   xmlns:inkscape="http://www.inkscape.org/namespaces/inkscape"
   width="15.533871mm"
   height="15.875mm"
   viewBox="0 0 15.533871 15.875"
   version="1.1"
   id="svg8"
   inkscape:version="1.0.2 (e86c870879, 2021-01-15)"
   sodipodi:docname="logo.svg">
  <defs
     id="defs2" />
  <sodipodi:namedview
     id="base"
     pagecolor="#ffffff"
     bordercolor="#666666"
     borderopacity="1.0"
     inkscape:pageopacity="0.0"
     inkscape:pageshadow="2"
     inkscape:zoom="5.7796672"
     inkscape:cx="-2.404472"
     inkscape:cy="33.735689"
     inkscape:document-units="mm"
     inkscape:current-layer="layer1"
     inkscape:document-rotation="0"
     showgrid="false"
     fit-margin-top="0"
     fit-margin-left="0"
     fit-margin-right="0"
     fit-margin-bottom="0"
     inkscape:window-width="1200"
     inkscape:window-height="670"
     inkscape:window-x="0"
     inkscape:window-y="0"
     inkscape:window-maximized="1" />
  <metadata
     id="metadata5">
    <rdf:RDF>
      <cc:Work
         rdf:about="">
        <dc:format>image/svg+xml</dc:format>
        <dc:type
           rdf:resource="http://purl.org/dc/dcmitype/StillImage" />
        <dc:title></dc:title>
      </cc:Work>
    </rdf:RDF>
  </metadata>
  <g
     inkscape:label="Layer 1"
     inkscape:groupmode="layer"
     id="layer1"
     style="display:inline"
     transform="translate(-55.361997,-171.66088)">
    <g
       id="g1026"
       transform="matrix(1.0331984,0,0,1.0331984,-1.8379281,-5.6988618)">
      <path
         id="path918"
         style="fill:#000000;stroke-width:3;stroke-linecap:round;stroke-linejoin:round"
         d="m 237.6543,650.04492 a 28.41222,28.41222 0 0 0 -10.61133,2.05664 l 2.02148,3.47852 c 2.40515,-0.92961 4.96329,-1.46898 7.58985,-1.51758 0.4137,-0.0151 0.82641,-0.0233 1.24023,-0.0195 v 0.002 c 2.84047,0.034 5.67015,0.57248 8.32813,1.56446 l 2.04101,-3.50782 A 28.41222,28.41222 0 0 0 237.6543,650.045 Z m -13.3418,3.32617 a 28.41222,28.41222 0 0 0 -3.04492,1.875 l 2.09961,3.47071 c 0.94329,-0.69472 1.93314,-1.32193 2.96289,-1.87696 z m 26.68555,0.002 -2.01563,3.46289 c 1.07681,0.56148 2.11264,1.2021 3.0918,1.92187 l 2.04101,-3.45703 a 28.41222,28.41222 0 0 0 -3.11718,-1.92773 z m -32.10157,3.74414 a 28.41222,28.41222 0 0 0 -9.65429,21.33984 28.41222,28.41222 0 0 0 9.16406,20.89649 l 2.14258,-3.54102 c -4.54967,-4.49582 -7.40159,-10.71705 -7.28125,-17.21289 -0.24299,-6.84386 2.86914,-13.35029 7.76953,-17.94336 z m 37.58985,0.0664 -2.08985,3.53907 c 0.0915,0.0881 0.18732,0.17214 0.27735,0.26172 7.93339,7.54688 9.75629,20.12303 4.14844,29.52929 -1.07465,1.94347 -2.42189,3.68436 -3.95704,5.22071 l 2.10157,3.56054 a 28.41222,28.41222 0 0 0 9.09961,-20.83789 28.41222,28.41222 0 0 0 -9.58008,-21.27344 z m -3.90625,40.58594 c -0.98032,0.75935 -2.01903,1.43816 -3.09961,2.03906 l 2.04297,3.44532 a 28.41222,28.41222 0 0 0 3.10547,-2.01563 z m -29.74219,0.0488 -2.09766,3.4668 a 28.41222,28.41222 0 0 0 3.04883,1.96875 l 2.05274,-3.46094 c -1.04848,-0.58439 -2.05374,-1.24138 -3.00391,-1.97461 z m 23.91797,3.2793 c -1.21831,0.49337 -2.47755,0.8793 -3.75977,1.17187 v 4.0918 a 28.41222,28.41222 0 0 0 5.82618,-1.78125 z m -18.20703,0.004 -2.06445,3.47852 a 28.41222,28.41222 0 0 0 6.89062,1.96484 v -4.10937 c -0.25514,-0.0501 -0.51122,-0.0853 -0.76562,-0.14453 -1.39719,-0.26571 -2.75428,-0.66943 -4.06055,-1.18946 z"
         transform="scale(0.26458333)" />
      <path
         style="color:#000000;font-style:normal;font-variant:normal;font-weight:normal;font-stretch:normal;font-size:medium;line-height:1.25;font-family:Inter;-inkscape-font-specification:Inter;font-variant-ligatures:normal;font-variant-position:normal;font-variant-caps:normal;font-variant-numeric:normal;font-variant-alternates:normal;font-variant-east-asian:normal;font-feature-settings:normal;font-variation-settings:normal;text-indent:0;text-align:start;text-decoration:none;text-decoration-line:none;text-decoration-style:solid;text-decoration-color:#000000;letter-spacing:0px;word-spacing:0px;text-transform:none;writing-mode:lr-tb;direction:ltr;text-orientation:mixed;dominant-baseline:auto;baseline-shift:baseline;text-anchor:start;white-space:normal;shape-padding:0;shape-margin:0;inline-size:0;clip-rule:nonzero;display:inline;overflow:visible;visibility:visible;isolation:auto;mix-blend-mode:normal;color-interpolation:sRGB;color-interpolation-filters:linearRGB;solid-color:#000000;solid-opacity:1;vector-effect:none;fill:#000000;fill-opacity:1;fill-rule:nonzero;stroke:none;stroke-width:0.79375;stroke-linecap:butt;stroke-linejoin:miter;stroke-miterlimit:4;stroke-dasharray:none;stroke-dashoffset:0;stroke-opacity:1;color-rendering:auto;image-rendering:auto;shape-rendering:auto;text-rendering:auto;enable-background:accumulate;stop-color:#000000"
         d="m 59.104447,171.66088 3.718579,6.39204 h 0.11268 l 3.718579,-6.39204 h 2.056487 l -4.53554,7.68246 4.53554,7.68245 h -2.056487 l -3.718579,-6.27201 h -0.11268 l -3.718579,6.27201 h -2.056486 l 4.648223,-7.68245 -4.648223,-7.68246 z"
         id="path925" />
      <path
         id="path923"
         style="fill:#000000;stroke-width:3;stroke-linecap:round;stroke-linejoin:round"
         d="m 213.86523,693.99023 a 28.41222,28.41222 0 0 0 19.45704,12.54883 v -4.10742 c -0.23755,-0.0473 -0.47602,-0.0835 -0.71289,-0.13867 -5.42922,-1.0317 -10.26601,-4.10765 -13.74805,-8.30274 z m 42.58789,0 c -3.44906,4.21603 -8.27715,7.13331 -13.52148,8.3086 v 4.07617 a 28.41222,28.41222 0 0 0 18.51367,-12.38477 z"
         transform="scale(0.26458333)" />
      <g
         aria-label="Y"
         transform="matrix(0.97976803,0,0,1.0324809,1.1291935,-5.8423339)"
         id="g993"
         style="font-size:20.4639px;line-height:1.25;font-family:Inter;-inkscape-font-specification:Inter;letter-spacing:0px;word-spacing:0px;stroke-width:0.511597">
        <path
           id="path991"
           style="stroke-width:0.511597"
           d="m 61.958561,180.39818 0.165615,0.26927 v 6.13322 h 1.802247 v -6.13322 l 0.165614,-0.26927 z" />
      </g>
    </g>
  </g>
</svg>
