<svg xmlns="http://www.w3.org/2000/svg" version="1.1" xmlns:xlink="http://www.w3.org/1999/xlink" xmlns:svgjs="http://svgjs.dev/svgjs" width="24" height="24"><svg xmlns="http://www.w3.org/2000/svg" viewBox="0 0 24 24"><svg fill="#222" viewBox="0 0 24 24"><path d="M6 7h2l1 2.5L10 7h2l-2 5 2 5h-2l-1-2.5L8 17H6l2-5-2-5m9 0h4v2h-4v2h2a2 2 0 0 1 2 2v2c0 1.11-.89 2-2 2h-4v-2h4v-2h-2a2 2 0 0 1-2-2V9c0-1.1.9-2 2-2Z"></path></svg><style>@media (prefers-color-scheme:light){:root{filter:none}}@media (prefers-color-scheme:dark){:root{filter:contrast(.3846153846153846) brightness(4.5)}}</style></svg><style>@media (prefers-color-scheme: light) { :root { filter: none; } }
@media (prefers-color-scheme: dark) { :root { filter: invert(100%); } }
</style></svg>