<svg xmlns="http://www.w3.org/2000/svg" version="1.1" xmlns:xlink="http://www.w3.org/1999/xlink" xmlns:svgjs="http://svgjs.dev/svgjs" width="1000" height="1000"><g clip-path="url(#SvgjsClipPath1079)"><rect width="1000" height="1000" fill="#ffffff"></rect><g transform="matrix(8.333333333333334,0,0,8.333333333333334,100,100)"><svg xmlns="http://www.w3.org/2000/svg" version="1.1" xmlns:xlink="http://www.w3.org/1999/xlink" xmlns:svgjs="http://svgjs.dev/svgjs" width="96" height="96"><svg xmlns="http://www.w3.org/2000/svg" xml:space="preserve" width="96" height="96"><path d="M25.8 13.04c1.08-.52 2.64-.84 4.12-.78 1.48.06 2.88.5 4.06 1.3 1.18.8 2.14 1.96 2.7 3.24.56 1.28.72 2.68.52 4.08-.2 1.4-.76 2.8-1.78 3.94-1.02 1.14-2.5 2.02-3.88 2.48-1.38.46-2.66.5-3.86.04-1.2-.46-2.32-1.42-3.16-2.26-.84-.84-1.4-1.56-1.76-2.74-.36-1.18-.52-2.82-.36-4.12.16-1.3.64-2.26 1.18-3.1.54-.84 1.14-1.56 2.22-2.08Z" style="fill:#d5f6ff;stroke-linecap:round;stroke-linejoin:round"></path><path d="M29.96 11.262c-1.651-.067-3.32.263-4.595.877-1.274.613-2.045 1.536-2.627 2.441-.581.905-1.147 2.036-1.33 3.518a11.557 11.557 0 0 0 .395 4.533c.411 1.348 1.125 2.271 2.01 3.156.884.885 2.07 1.934 3.51 2.486 1.44.552 2.993.488 4.532-.025 1.54-.513 3.141-1.454 4.311-2.762 1.17-1.307 1.8-2.898 2.023-4.465.224-1.566.046-3.161-.593-4.623a8.665 8.665 0 0 0-3.055-3.666c-1.343-.91-2.928-1.403-4.58-1.47zm-.081 1.998c1.308.053 2.522.44 3.539 1.129a6.76 6.76 0 0 1 2.346 2.812c.48 1.099.623 2.304.447 3.537-.176 1.234-.667 2.442-1.537 3.414-.87.973-2.229 1.793-3.45 2.2-1.22.406-2.227.422-3.187.054s-2.015-1.238-2.81-2.033c-.796-.795-1.202-1.312-1.51-2.324-.309-1.012-.462-2.589-.324-3.707.137-1.119.53-1.907 1.029-2.682.498-.775.927-1.292 1.812-1.719.886-.426 2.337-.734 3.645-.681z" style="stroke-linecap:round;stroke-linejoin:round"></path><path d="M61.1 26.18c1.5-.02 4.22.82 6.44 1.76 2.22.94 3.94 1.98 5.52 3.06 1.58 1.08 3.02 2.2 4.44 3.64 1.42 1.44 2.82 3.2 4 4.9 1.18 1.7 2.14 3.34 2.88 5.28.74 1.94 1.26 4.18 1.28 5.62.02 1.44-.46 2.08-1.62 1.98-1.16-.1-3-.94-4.88-2.1-1.88-1.16-3.8-2.64-5.32-4.02-1.52-1.38-2.64-2.66-4.1-4.26-1.46-1.6-3.26-3.52-4.76-5.38-1.5-1.86-2.7-3.66-3.64-5.1-.94-1.44-1.62-2.52-1.82-3.5-.2-.98.08-1.86 1.58-1.88Z" style="fill:#ffa001;stroke-linecap:round;stroke-linejoin:round"></path><path d="M61.086 25.18c-.945.012-1.792.353-2.242 1.021-.45.668-.433 1.422-.303 2.059.26 1.274 1.017 2.4 1.961 3.847.944 1.447 2.165 3.278 3.7 5.18 1.533 1.903 3.347 3.836 4.8 5.428 1.453 1.592 2.6 2.903 4.166 4.326a38.668 38.668 0 0 0 5.467 4.13c1.944 1.2 3.77 2.112 5.318 2.245.774.067 1.623-.164 2.12-.783.496-.62.599-1.374.587-2.207-.023-1.666-.57-3.93-1.346-5.963-.775-2.034-1.785-3.754-2.992-5.492-1.207-1.74-2.634-3.537-4.11-5.033-1.474-1.497-2.975-2.662-4.587-3.764-1.612-1.102-3.402-2.184-5.695-3.154-2.293-.971-4.955-1.866-6.844-1.84zm.027 2c1.11-.015 3.89.772 6.037 1.681 2.147.91 3.798 1.907 5.346 2.965 1.548 1.058 2.926 2.132 4.291 3.516 1.365 1.384 2.738 3.106 3.89 4.767 1.154 1.662 2.064 3.22 2.768 5.067.705 1.846 1.198 4.063 1.215 5.277.009.607-.12.894-.148.93-.029.035 0 .074-.387.04-.773-.066-2.624-.834-4.44-1.954a36.969 36.969 0 0 1-5.173-3.908c-1.473-1.338-2.566-2.588-4.033-4.196-1.468-1.608-3.255-3.514-4.721-5.332-1.466-1.817-2.645-3.586-3.58-5.02-.936-1.433-1.538-2.468-1.678-3.154-.07-.343-.013-.519.002-.54.015-.022.056-.132.611-.14z" style="stroke-linecap:round;stroke-linejoin:round"></path><path d="M44.26 79.28c-.1 1.28-.22 3.12-.18 4.94.04 1.82.24 3.62.66 4.94.42 1.32 1.06 2.16 2.06 2.84 1 .68 2.36 1.2 3.22 1.44.86.24 1.22.2 2.18.08.96-.12 2.52-.32 3.78-.38 1.26-.06 2.22.02 3.2-.26s1.98-.92 1.76-1.76c-.22-.84-1.66-1.88-2.72-2.9-1.06-1.02-1.74-2.02-1.94-3.22-.2-1.2.08-2.6.6-3.76.52-1.16 1.28-2.08 2.32-2.78 1.04-.7 2.36-1.18 3.68-1.48 1.32-.3 2.64-.42 3.82-.34 1.18.08 2.22.36 3 1 .78.64 1.3 1.64 1.66 2.78.36 1.14.56 2.42.48 3.5-.08 1.08-.44 1.96-.02 2.18.42.22 1.62-.22 2.76-.94 1.14-.72 2.22-1.72 3.2-2.64.98-.92 1.86-1.76 2.54-2.72.68-.96 1.16-2.04 1.54-3.04.38-1 .66-1.92.66-2.8 0-.88-.28-1.72-.98-2.84-.7-1.12-1.82-2.52-3.12-3.52s-2.78-1.6-4.48-2.08c-1.7-.48-3.62-.84-5.54-1.04-1.92-.2-3.84-.24-5.62-.02-1.78.22-3.42.7-5.08 1.32-1.66.62-3.34 1.38-4.72 2.28-1.38.9-2.46 1.94-3.54 2.86-1.08.92-2.16 1.72-2.98 2.64-.82.92-1.38 1.96-1.7 2.84-.32.88-.4 1.6-.5 2.88Z" style="fill:#ffa001;stroke-linecap:round;stroke-linejoin:round"></path><path d="M62.658 63.467c-1.881.232-3.605.74-5.308 1.377-1.704.636-3.441 1.417-4.916 2.379-1.476.962-2.596 2.043-3.643 2.935-1.047.892-2.16 1.706-3.078 2.737a9.909 9.909 0 0 0-1.893 3.164c-.361.994-.455 1.85-.556 3.142-.101 1.292-.225 3.162-.184 5.041.041 1.879.235 3.738.707 5.22.472 1.484 1.299 2.58 2.451 3.364 1.153.784 2.557 1.31 3.514 1.576.957.267 1.609.23 2.572.11.964-.12 2.51-.316 3.703-.373 1.194-.057 2.234.044 3.428-.297.597-.17 1.2-.432 1.711-.877.511-.445.962-1.258.742-2.098-.22-.84-.768-1.327-1.326-1.855-.558-.529-1.179-1.041-1.668-1.512-.979-.942-1.494-1.738-1.648-2.664-.155-.926.075-2.18.527-3.188s1.074-1.76 1.965-2.359c.89-.6 2.108-1.053 3.344-1.334 1.235-.28 2.468-.388 3.53-.316 1.063.072 1.88.319 2.434.773.554.454 1.013 1.272 1.34 2.309.328 1.036.502 2.225.436 3.125-.034.45-.134.897-.192 1.363-.029.233-.058.473 0 .791.059.318.306.777.705.986.4.21.729.188 1.026.155.297-.034.582-.11.879-.213a9.273 9.273 0 0 0 1.853-.922c1.253-.791 2.368-1.833 3.352-2.756.984-.923 1.916-1.804 2.672-2.871.756-1.068 1.264-2.226 1.658-3.264.394-1.038.725-2.062.725-3.154s-.376-2.162-1.131-3.371c-.756-1.21-1.922-2.678-3.36-3.783-1.437-1.106-3.054-1.75-4.818-2.248a34.503 34.503 0 0 0-5.707-1.073c-1.975-.205-3.964-.252-5.846-.02zm.244 1.986c1.679-.207 3.53-.173 5.395.022 1.865.194 3.735.545 5.371 1.007 1.636.462 2.98 1.016 4.143 1.91 1.162.895 2.236 2.227 2.88 3.258.645 1.031.829 1.643.829 2.31 0 .669-.229 1.482-.594 2.444-.366.962-.818 1.966-1.422 2.819-.604.852-1.432 1.651-2.408 2.568-.977.917-2.021 1.874-3.05 2.523-.478.303-.96.532-1.347.676.05-.296.107-.566.139-.996.093-1.26-.13-2.631-.524-3.875-.392-1.243-.974-2.426-1.98-3.252-1.006-.826-2.269-1.136-3.566-1.224-1.298-.088-2.705.042-4.11.36-1.404.32-2.826.827-4.015 1.628a7.494 7.494 0 0 0-2.676 3.2c-.588 1.31-.92 2.86-.674 4.333.246 1.474 1.093 2.68 2.234 3.777.571.55 1.198 1.065 1.68 1.522a5.2 5.2 0 0 1 .766.91s.06-.073-.12.082c-.178.155-.564.354-.947.463-.766.219-1.648.16-2.974.223-1.327.063-2.9.267-3.856.386-.956.12-1.024.162-1.787-.05-.763-.213-2.078-.727-2.926-1.303-.847-.576-1.301-1.16-1.67-2.317-.368-1.157-.574-2.898-.613-4.66-.039-1.761.079-3.572.178-4.84.099-1.267.163-1.85.441-2.615a8.059 8.059 0 0 1 1.508-2.517c.721-.81 1.768-1.596 2.88-2.543 1.114-.948 2.154-1.946 3.438-2.784 1.285-.837 2.91-1.578 4.526-2.181 1.616-.604 3.173-1.056 4.851-1.264z" style="stroke-linecap:round;stroke-linejoin:round"></path><path d="M18.74 49.84c-.66 1.64-1.18 5.36-1.3 7.92-.12 2.56.16 3.96 1.28 4.9 1.12.94 3.08 1.42 5.2 1.6 2.12.18 4.4.06 6.18-.12 1.78-.18 3.06-.42 4.72-1.06 1.66-.64 3.7-1.68 5.28-2.84s2.7-2.44 3.72-3.8c1.02-1.36 1.94-2.8 2.7-4.42.76-1.62 1.36-3.42 1.72-5.3.36-1.88.48-3.84.42-5.7-.06-1.86-.3-3.62-.58-5.1-.28-1.48-.6-2.68-1.04-3.74-.44-1.06-1-1.98-2.32-2.08-1.32-.1-3.4.62-4.94 1.52-1.54.9-2.54 1.98-3.14 3-.6 1.02-.8 1.98-.8 2.88 0 .9.2 1.74.34 2.92s.22 2.7 0 4.12-.74 2.74-1.68 3.82c-.94 1.08-2.3 1.92-3.64 2.42-1.34.5-2.66.66-4.04.42-1.38-.24-2.82-.88-3.8-1.3-.98-.42-1.5-.62-2.16-.94-.66-.32-1.46-.76-2.12.88Z" style="fill:#ffa001;stroke-linecap:round;stroke-linejoin:round"></path><path d="M44.795 29.104c-1.76-.134-3.842.671-5.52 1.652-1.678.98-2.808 2.185-3.498 3.357a6.61 6.61 0 0 0-.937 3.387c0 1.048.214 1.913.347 3.037.134 1.125.202 2.573.004 3.85-.197 1.277-.65 2.403-1.445 3.316-.795.914-2.032 1.692-3.236 2.14-1.204.45-2.318.58-3.518.372-1.2-.209-2.586-.81-3.578-1.235-.992-.425-1.495-.618-2.117-.92-.311-.15-.849-.504-1.647-.384-.797.12-1.444.812-1.838 1.79-.787 1.958-1.246 5.597-1.37 8.247-.063 1.325-.032 2.4.203 3.346.234.946.717 1.766 1.433 2.367 1.432 1.201 3.54 1.642 5.758 1.83 2.218.188 4.544.063 6.365-.121 1.821-.184 3.236-.45 4.979-1.121 1.742-.672 3.83-1.733 5.511-2.967 1.682-1.234 2.878-2.608 3.928-4.008 1.05-1.4 2.012-2.899 2.807-4.594a23.527 23.527 0 0 0 1.797-5.537c.376-1.966.5-3.994.437-5.92a34.493 34.493 0 0 0-.598-5.254c-.287-1.52-.622-2.789-1.1-3.937-.237-.574-.526-1.184-1.03-1.71a3.317 3.317 0 0 0-2.137-.983zm-.15 1.994c.44.033.628.15.843.375.216.224.428.604.63 1.09.403.971.707 2.102.98 3.542.272 1.44.504 3.153.562 4.948.058 1.794-.059 3.684-.402 5.478a21.571 21.571 0 0 1-1.643 5.065c-.725 1.545-1.606 2.924-2.595 4.244-.99 1.32-2.033 2.508-3.512 3.594-1.479 1.085-3.47 2.104-5.047 2.712-1.577.609-2.722.823-4.461.999-1.74.175-3.974.29-5.996.119-2.023-.172-3.832-.691-4.64-1.37-.405-.339-.622-.687-.778-1.316-.156-.629-.204-1.536-.147-2.771.116-2.47.697-6.271 1.229-7.594.266-.662.349-.569.281-.559-.067.01.126.036.475.205.698.339 1.235.545 2.203.96.968.414 2.461 1.095 4.021 1.367 1.56.27 3.085.082 4.561-.47 1.476-.55 2.96-1.454 4.045-2.7 1.085-1.247 1.672-2.76 1.914-4.323.242-1.563.152-3.155.006-4.39-.147-1.236-.334-2.051-.334-2.803 0-.752.152-1.506.662-2.373.51-.867 1.381-1.825 2.783-2.645 1.402-.819 3.479-1.451 4.36-1.384z" style="stroke-linecap:round;stroke-linejoin:round"></path><path d="M36.781.082A28.534 28.534 0 0 0 20.443 3.85C6.74 11.76 2.028 29.343 9.94 43.047a2 2 0 0 0 2.733.73 2 2 0 0 0 .732-2.73c-6.83-11.832-2.792-26.904 9.04-33.734C34.274.481 49.344 4.52 56.175 16.352a2 2 0 0 0 2.732.732 2 2 0 0 0 .733-2.732C54.696 5.786 45.973.735 36.78.082Z" style="stroke-linecap:round;stroke-linejoin:round;stroke-miterlimit:10"></path><path d="M58.426 13.42a2 2 0 0 0-2.45 1.414l-1.74 6.494-35.554 20.526-6.493-1.74a2 2 0 0 0-2.449 1.415 2 2 0 0 0 1.414 2.45l7.293 1.953a2 2 0 0 0 1.518-.2l36.988-21.355a2 2 0 0 0 .934-1.215l1.953-7.293a2 2 0 0 0-1.414-2.45z" style="stroke-linecap:round;stroke-linejoin:round;stroke-miterlimit:10"></path><path d="M30 10.002c-5.499 0-9.998 4.5-9.998 9.998 0 5.499 4.5 9.998 9.998 9.998 5.499 0 9.998-4.5 9.998-9.998 0-5.499-4.5-9.998-9.998-9.998zm0 4A5.967 5.967 0 0 1 35.998 20 5.967 5.967 0 0 1 30 25.998 5.967 5.967 0 0 1 24.002 20 5.967 5.967 0 0 1 30 14.002z" style="stroke-linecap:round;stroke-miterlimit:10" transform="rotate(-30 30 20.001)"></path><path d="M47 14c-1.633 0-3 1.367-3 3s1.367 3 3 3 3-1.367 3-3-1.367-3-3-3zm0 2c.529 0 1 .471 1 1s-.471 1-1 1-1-.471-1-1 .471-1 1-1z" style="stroke-linecap:round;stroke-linejoin:round;stroke-miterlimit:10" transform="rotate(-30 46.996 17.002)"></path><path d="M61 48c-1.633 0-3 1.367-3 3s1.367 3 3 3 3-1.367 3-3-1.367-3-3-3zm0 2c.529 0 1 .471 1 1s-.471 1-1 1-1-.471-1-1 .471-1 1-1zM34 71c-1.633 0-3 1.367-3 3s1.367 3 3 3 3-1.367 3-3-1.367-3-3-3zm0 2c.529 0 1 .471 1 1s-.471 1-1 1-1-.471-1-1 .471-1 1-1z" style="stroke-linecap:round;stroke-linejoin:round;stroke-miterlimit:10"></path><path d="M53.768 22.041a2 2 0 0 0-2.092 1.904 2 2 0 0 0 1.902 2.092C71.084 26.861 85 41.281 85 59c0 18.25-14.75 33-33 33S19 77.25 19 59c0-4.978 1.08-10.753 2.982-14.854a2 2 0 0 0-.97-2.656 2 2 0 0 0-2.657.973C16.106 47.309 15 53.468 15 59c0 20.41 16.59 37 37 37s37-16.59 37-37c0-19.819-15.632-36.037-35.232-36.959Z" style="stroke-linecap:round;stroke-linejoin:round;stroke-miterlimit:10"></path><path d="M56.613 22.64a2 2 0 0 0-.894 2.684A73.815 73.815 0 0 0 85.8 56.764a2 2 0 0 0 2.72-.776 2 2 0 0 0-.775-2.72 69.828 69.828 0 0 1-28.45-29.733 2 2 0 0 0-2.683-.894zM65.248 62.055c-2.785.185-5.66.811-8.5 1.908-5.678 2.193-10.198 5.876-12.935 10.195-2.738 4.32-3.683 9.396-1.89 13.99h-.001c1.302 3.34 3.862 5.915 7.04 7.565a2 2 0 0 0 2.698-.854 2 2 0 0 0-.853-2.697c-2.463-1.278-4.243-3.12-5.159-5.467-1.261-3.231-.672-6.9 1.543-10.396 2.215-3.496 6.065-6.698 10.998-8.604 4.934-1.905 9.949-2.129 13.96-1.035 4.01 1.094 6.941 3.413 8.203 6.645.297.762.488 1.542.582 2.341a2 2 0 0 0 2.218 1.752 2 2 0 0 0 1.754-2.218 13.444 13.444 0 0 0-.83-3.33c-1.793-4.595-5.93-7.7-10.875-9.05-2.473-.674-5.168-.93-7.953-.745zM43.836 27.34a2 2 0 0 0-.516 2.781A20.876 20.876 0 0 1 47 42c0 11.621-9.379 21-21 21-2.829 0-5.517-.557-7.975-1.566a2 2 0 0 0-2.609 1.09 2 2 0 0 0 1.09 2.61A24.951 24.951 0 0 0 26 67c13.783 0 25-11.217 25-25 0-5.24-1.62-10.124-4.383-14.145a2 2 0 0 0-2.781-.515z" style="stroke-linecap:round;stroke-linejoin:round;stroke-miterlimit:10"></path><path d="M39.512 58.076a2 2 0 0 0-.178 2.822l9.266 10.52a2 2 0 0 0 2.822.178 2 2 0 0 0 .18-2.823l-9.268-10.517a2 2 0 0 0-2.822-.18zM80.178 48.586a2 2 0 0 0-2.4 1.496l-3.602 15.533a2 2 0 0 0 1.496 2.4 2 2 0 0 0 2.4-1.495l3.602-15.534a2 2 0 0 0-1.496-2.4zM60.783 28.92l-13.762 2.682a2 2 0 0 0-1.58 2.345 2 2 0 0 0 2.346 1.58l13.762-2.68a2 2 0 0 0 1.58-2.345 2 2 0 0 0-2.346-1.582zM33.115 33.678a2 2 0 0 0-1.306.799 2 2 0 0 0 .441 2.793A6.64 6.64 0 0 1 35 42.668a6.637 6.637 0 0 1-6.668 6.666 6.644 6.644 0 0 1-6.629-5.97 2 2 0 0 0-2.195-1.784 2 2 0 0 0-1.785 2.195c.554 5.367 5.115 9.559 10.609 9.559C34.2 53.334 39 48.534 39 42.668c0-3.535-1.733-6.695-4.396-8.633a2 2 0 0 0-1.489-.357zM66.297 74.05c-1.24-.084-2.543.051-3.848.417-5.22 1.463-9.119 6.102-8.361 11.058.38 2.478 2.015 4.474 4.137 5.514 2.122 1.04 4.716 1.225 7.326.494 5.22-1.463 9.119-6.102 8.361-11.058-.379-2.478-2.013-4.474-4.135-5.514a9.337 9.337 0 0 0-3.48-.91zm-.28 3.995c.762.052 1.44.234 1.999.508 1.115.547 1.762 1.357 1.941 2.527.358 2.342-1.942 5.608-5.486 6.602-1.771.495-3.371.312-4.487-.235-1.115-.547-1.764-1.357-1.943-2.527h.002c-.358-2.341 1.941-5.608 5.484-6.602a7.383 7.383 0 0 1 2.49-.273z" style="stroke-linecap:round;stroke-linejoin:round;stroke-miterlimit:10"></path></svg></svg></g></g><defs><clipPath id="SvgjsClipPath1079"><rect width="1000" height="1000" x="0" y="0" rx="500" ry="500"></rect></clipPath></defs></svg>