<?xml version="1.0" standalone="no"?>
<!DOCTYPE svg PUBLIC "-//W3C//DTD SVG 20010904//EN"
 "http://www.w3.org/TR/2001/REC-SVG-20010904/DTD/svg10.dtd">
<svg version="1.0" xmlns="http://www.w3.org/2000/svg"
 width="512.000000pt" height="512.000000pt" viewBox="0 0 512.000000 512.000000"
 preserveAspectRatio="xMidYMid meet">
<metadata>
Created by potrace 1.14, written by Peter Selinger 2001-2017
</metadata>
<g transform="translate(0.000000,512.000000) scale(0.100000,-0.100000)"
fill="#000000" stroke="none">
<path d="M2640 4610 l0 -200 -80 0 -80 0 0 120 0 120 -80 0 -80 0 0 -133 0
-133 -72 -23 c-266 -85 -489 -274 -613 -521 -84 -167 -115 -309 -115 -526 l0
-124 66 -131 c36 -72 64 -132 62 -133 -2 -1 -25 -19 -53 -41 -216 -170 -366
-353 -475 -580 -179 -373 -208 -809 -78 -1199 182 -548 645 -953 1223 -1068
157 -32 433 -32 590 0 654 130 1135 610 1276 1272 30 140 33 437 6 575 -84
432 -319 798 -665 1041 -2 1 26 61 62 133 l66 131 0 127 c0 213 -33 361 -118
528 -53 104 -96 164 -185 254 -121 123 -262 210 -424 262 l-73 23 0 213 0 213
-80 0 -80 0 0 -200z m60 -374 c181 -30 343 -112 474 -239 162 -158 249 -355
263 -594 l6 -113 -883 0 -883 0 6 113 c6 104 22 194 48 260 l11 27 252 0 251
0 24 -51 c29 -64 91 -127 156 -160 72 -35 198 -35 270 0 63 32 124 92 155 156
35 72 35 198 0 270 -31 64 -92 124 -155 156 -41 20 -65 24 -135 24 -70 0 -94
-4 -135 -24 -65 -33 -127 -96 -156 -160 l-24 -51 -207 0 c-115 0 -208 4 -208
8 0 20 125 154 191 204 202 153 437 214 679 174z m-200 -343 c0 -23 -39 -63
-62 -63 -26 0 -22 17 11 51 33 33 51 37 51 12z m117 -65 c30 -28 32 -89 3
-118 -28 -28 -87 -27 -117 2 -30 28 -32 89 -3 118 28 28 87 27 117 -2z m733
-778 l-40 -80 -750 0 -750 0 -40 80 -40 80 830 0 830 0 -40 -80z m-1515 -297
c-34 -270 -239 -472 -509 -500 l-59 -6 33 59 c102 180 233 331 390 448 61 45
82 56 114 56 l38 0 -7 -57z m1275 52 c0 -3 -11 -27 -24 -53 -13 -26 -36 -82
-51 -125 -21 -59 -32 -76 -44 -73 -9 2 -126 26 -261 52 -135 26 -248 50 -252
53 -3 3 -4 39 -1 79 l6 72 313 0 c173 0 314 -2 314 -5z m684 -455 c67 -109
124 -247 156 -375 32 -124 51 -265 37 -265 -5 0 -41 17 -80 37 -256 135 -365
453 -247 721 l20 45 34 -43 c18 -23 55 -77 80 -120z m-1084 95 c129 -25 242
-48 250 -50 12 -4 15 -31 15 -162 1 -164 9 -219 52 -358 49 -155 139 -315 242
-427 l52 -57 -177 -203 c-98 -112 -179 -205 -180 -207 -2 -2 -40 20 -85 49
-215 138 -440 198 -698 187 -75 -4 -164 -13 -198 -20 -56 -13 -63 -13 -68 2
-18 45 -165 486 -165 495 0 6 38 30 84 54 267 136 477 380 581 675 21 60 31
76 44 73 9 -3 122 -26 251 -51z m-1030 -1058 l87 -257 -62 -30 c-95 -45 -205
-121 -285 -196 -85 -80 -74 -85 -150 71 -86 175 -133 351 -146 540 l-7 100
169 1 c110 1 190 7 229 17 33 8 64 14 69 13 5 -1 48 -118 96 -259z m1849 -162
c92 -58 207 -111 304 -139 31 -9 57 -18 57 -20 0 -13 -55 -125 -94 -190 -88
-148 -201 -279 -336 -388 -47 -37 -87 -68 -91 -68 -3 0 -16 26 -29 58 -48 118
-128 245 -210 335 l-51 56 178 205 c98 112 180 205 182 205 2 1 43 -24 90 -54z
m-1170 -660 c153 -36 296 -148 364 -285 21 -40 37 -78 37 -85 0 -18 -166 -30
-288 -21 -119 8 -265 36 -367 71 -88 29 -248 103 -280 129 -20 16 -19 17 30
61 136 122 328 171 504 130z"/>
<path d="M3040 3530 l0 -80 80 0 80 0 0 80 0 80 -80 0 -80 0 0 -80z"/>
<path d="M1155 2918 c-259 -280 -429 -627 -491 -1004 -27 -166 -24 -576 5
-623 7 -11 22 -11 81 -1 l72 12 -9 87 c-14 144 -8 405 12 516 59 337 212 650
433 885 39 43 72 82 72 87 0 5 -24 32 -53 61 l-54 53 -68 -73z"/>
<path d="M4420 1854 c-8 -1 -36 -6 -62 -9 -47 -6 -48 -7 -48 -43 0 -20 3 -54
6 -74 l7 -38 78 0 79 0 -6 73 c-8 103 -7 101 -54 91z"/>
<path d="M4316 1488 c-21 -167 -30 -224 -51 -308 -60 -243 -175 -472 -336
-676 -54 -68 -275 -284 -290 -284 -9 0 15 -38 70 -109 l19 -25 69 56 c306 253
544 643 634 1042 17 75 47 284 49 334 0 8 -22 12 -79 12 l-80 0 -5 -42z"/>
</g>
</svg>
