<?xml version="1.0" standalone="no"?>
<!DOCTYPE svg PUBLIC "-//W3C//DTD SVG 20010904//EN"
 "http://www.w3.org/TR/2001/REC-SVG-20010904/DTD/svg10.dtd">
<svg version="1.0" xmlns="http://www.w3.org/2000/svg"
 width="512.000000pt" height="512.000000pt" viewBox="0 0 512.000000 512.000000"
 preserveAspectRatio="xMidYMid meet">
<metadata>
Created by potrace 1.14, written by Peter Selinger 2001-2017
</metadata>
<g transform="translate(0.000000,512.000000) scale(0.100000,-0.100000)"
fill="#000000" stroke="none">
<path d="M2640 4760 l0 -200 -80 0 -80 0 0 120 0 120 -80 0 -80 0 0 -133 0
-133 -72 -23 c-266 -85 -489 -274 -613 -521 -84 -167 -115 -309 -115 -526 l0
-124 66 -131 c36 -72 64 -132 62 -133 -2 -1 -25 -19 -53 -41 -216 -170 -366
-353 -475 -580 -179 -373 -208 -809 -78 -1199 182 -548 645 -953 1223 -1068
157 -32 433 -32 590 0 654 130 1135 610 1276 1272 30 140 33 437 6 575 -84
432 -319 798 -665 1041 -2 1 26 61 62 133 l66 131 0 127 c0 213 -33 361 -118
528 -53 104 -96 164 -185 254 -121 123 -262 210 -424 262 l-73 23 0 213 0 213
-80 0 -80 0 0 -200z m135 -388 c321 -87 551 -317 637 -637 10 -38 21 -121 25
-182 l6 -113 -883 0 -883 0 6 113 c6 104 22 194 48 260 l11 27 252 0 252 0 24
-52 c29 -64 89 -126 155 -158 41 -20 65 -25 135 -25 100 0 160 24 225 90 66
65 90 125 90 225 0 100 -24 160 -90 226 -66 66 -125 89 -225 89 -70 0 -94 -4
-135 -24 -65 -33 -126 -95 -155 -159 l-24 -52 -208 0 c-114 0 -208 4 -208 8 0
5 26 40 59 78 131 156 337 272 544 305 79 12 263 2 342 -19z m-108 -345 c109
-109 7 -290 -145 -256 -47 10 -111 76 -114 116 -5 109 33 168 120 183 55 9
101 -5 139 -43z m683 -827 l-40 -80 -750 0 -750 0 -40 80 -40 80 830 0 830 0
-40 -80z m-1515 -297 c-34 -270 -239 -472 -508 -500 l-59 -6 17 34 c85 166
241 349 404 473 61 46 80 56 113 56 l40 0 -7 -57z m473 -40 c-29 -414 -331
-779 -743 -898 -114 -33 -268 -49 -361 -38 l-70 8 11 70 c7 39 23 107 35 153
l22 82 87 0 c205 0 415 100 547 261 91 111 164 294 164 411 l0 48 158 0 157 0
-7 -97z m802 92 c0 -3 -11 -27 -24 -53 -13 -26 -36 -82 -51 -124 -24 -68 -30
-77 -49 -73 -11 2 -129 25 -261 51 -132 26 -243 50 -247 53 -3 3 -4 39 -1 79
l6 72 313 0 c173 0 314 -2 314 -5z m296 -36 c32 -23 82 -61 110 -85 l50 -43
-43 -88 c-58 -117 -76 -207 -70 -348 3 -85 10 -128 31 -190 72 -212 230 -377
432 -451 l77 -28 -6 -75 c-9 -111 -37 -231 -54 -231 -26 0 -162 49 -226 81
-239 121 -431 339 -516 588 -41 120 -54 200 -54 341 0 103 5 155 21 221 43
175 126 348 168 349 11 0 47 -19 80 -41z m348 -357 c131 -196 207 -402 234
-634 5 -41 5 -68 -1 -68 -5 0 -41 17 -80 37 -256 135 -365 453 -247 720 10 23
21 43 24 43 3 0 34 -44 70 -98z m-1044 33 c129 -25 242 -48 250 -51 13 -3 15
-23 12 -118 -10 -303 102 -615 298 -829 l51 -56 -177 -203 c-98 -112 -179
-205 -180 -207 -2 -2 -40 20 -85 49 -215 138 -440 198 -698 187 -75 -4 -164
-13 -198 -20 -56 -13 -63 -13 -68 2 -18 45 -165 486 -165 495 0 6 38 30 84 54
266 136 477 381 581 675 21 60 31 76 44 73 9 -3 122 -26 251 -51z m-1030
-1058 l87 -257 -62 -30 c-95 -45 -205 -121 -285 -196 -85 -80 -74 -85 -150 71
-87 177 -132 346 -146 540 l-7 100 164 1 c111 1 185 6 229 16 36 9 69 15 74
14 5 -1 48 -118 96 -259z m1849 -162 c92 -58 207 -111 304 -139 31 -9 57 -19
57 -21 0 -14 -62 -139 -100 -200 -90 -146 -199 -272 -330 -377 -47 -37 -87
-68 -91 -68 -3 0 -16 26 -29 58 -49 119 -128 245 -210 335 l-52 57 179 204
c98 113 180 205 182 206 2 0 43 -25 90 -55z m-1047 -199 c327 -83 599 -324
717 -637 11 -29 20 -54 18 -55 -27 -22 -284 -122 -291 -112 -2 2 -13 31 -25
64 -69 188 -245 354 -448 422 -70 24 -93 26 -223 26 -130 0 -153 -2 -223 -26
-101 -34 -201 -94 -277 -167 l-62 -59 -72 63 c-39 34 -89 84 -110 110 l-39 47
59 59 c145 147 360 254 580 289 98 15 286 4 396 -24z m-123 -461 c153 -36 296
-148 364 -285 21 -40 37 -78 37 -85 0 -8 -25 -14 -67 -18 -215 -21 -459 14
-659 93 -86 35 -180 81 -209 104 -20 16 -19 17 30 61 134 121 328 171 504 130z"/>
<path d="M3040 3680 l0 -80 80 0 80 0 0 80 0 80 -80 0 -80 0 0 -80z"/>
</g>
</svg>
