<svg xmlns="http://www.w3.org/2000/svg" version="1.1" xmlns:xlink="http://www.w3.org/1999/xlink" xmlns:svgjs="http://svgjs.com/svgjs" width="50" height="50"><svg xmlns="http://www.w3.org/2000/svg" xml:space="preserve" width="50" height="50" viewBox="0 0 13.229 13.229"><path d="M12.702.007c-.364.12-.426 1.627-.588 2.111-.159.595-1.351 2.173-1.586 1.018-.4-.478-.047-1.569-.2-1.71-.328-.962-.874.922-.898 1.36-.323.845-.471 2.723-1.662 2.351-.986-.088-1.288-.896-.742-1.51.617-.544.917-1.026 1.496-1.267-.23-.308.735-.408.572-.947C8.677.652 7.462 2.6 6.885 2.94c-.62 1.498-1.18.08-1.636-.707-.477-1.002.043.387-.265-.17-.783-1.44-.822.765-.119 1.22 1.142.729-1.946 2.23-1.028.702.442-1.018-.062-2.403-1.23-2.503-1.27.049-1.749 1.46-2.172 2.473-.897 1.129-.386 3.547 1.347 2.968 1.317-.25 1.543-1.944 2.919-2.21.817-1.085 1.226.08.39.704-.569.62-1.741 2.532-.356 2.214.685-.57.238-1.182.925-1.915.614-1.377 1.9 1.38 2.96.04.494-.234.935-2.381 1.787-1.453 1.13-.121 1.932-1.36 2.231-2.427.19.322-.363 2.442-.463 3.474.072 1.62-.535 3.052-1.665 4.193-.761.877-2.744 2.656-1.389 3.685v-.002c.669.009 1.01-1.019 1.564-1.377.736-1.16 1.152-2.515 1.609-3.808l.11-.333.232-1.414.03.016c.044-.57.281-1.565.208-2.118.002-1.236.506-2.606.31-3.752-.205-.358-.36-.473-.482-.434zM9.651 1.195c-.026.008-.044.038-.037.103.26.042.114-.127.037-.103zm-7.153.87c.824.571 1.292 2.824.083 3.132v-.002c-.498.119-1.064.021-1.55-.116-.542-.378-.025-.995.034-1.5.187-.351.523-1.522 1.433-1.513Zm7.91.087c-.005-.003-.013.004-.025.025.025.062.04-.019.025-.025zm-5.802.112c.007-.004.018.001.034.021-.04.066-.056-.012-.034-.021zm-1.18.115c.03-.002.115.191.222.707-.208-.377-.26-.704-.222-.707Zm7.01.12c-.008-.005-.018.007-.029.048.05.116.05-.036.028-.049zm-5.04.296c.07.008.31.237.511.665-.48-.459-.58-.673-.51-.665Zm6.05 1.084c-.014.007-.041.036-.083.104.073.055.13-.126.084-.104zm-.13.242a.315.315 0 0 0-.103.005.202.202 0 0 0-.128.074c.317-.016.314-.067.23-.079zM.679 5.43c.242-.01.655.14 1.004.223.91-.18 1.477.134.344.706-.4.16-1.097.298-1.329-.192C.366 5.61.438 5.44.68 5.43zm1.19.469c-.014.002-.021.02-.005.065.174.055.051-.074.006-.065zm3.653.252c-.012.01-.025.038-.034.101.101.025.07-.129.034-.101zm0 .19c-.027.01-.076.04-.07.052.1-.059.096-.065.07-.053zm-.162.123c-.046-.002-.094.054-.075.22.228-.059.152-.218.075-.22zm6.237 2.42c-.448 1.438-1.055 2.804-2.198 3.775-.617.34-.105-.753-.084-.98a49.87 57.662 0 0 1 2.282-2.795z" style="fill:#48486f;fill-opacity:1;stroke-width:.0228255"></path></svg><style>@media (prefers-color-scheme: light) { :root { filter: none; } }
@media (prefers-color-scheme: dark) { :root { filter: contrast(0.3846153846153846) brightness(4.5); } }
</style></svg>