<svg id="visual" viewBox="0 0 960 540" width="960" height="540" xmlns="http://www.w3.org/2000/svg" xmlns:xlink="http://www.w3.org/1999/xlink" version="1.1"><rect x="0" y="0" width="960" height="540" fill="#001220"></rect><path d="M0 142L9.3 143.5C18.7 145 37.3 148 56.2 161C75 174 94 197 112.8 204C131.7 211 150.3 202 169.2 190.7C188 179.3 207 165.7 225.8 156.3C244.7 147 263.3 142 282.2 153.7C301 165.3 320 193.7 338.8 207.8C357.7 222 376.3 222 395.2 216.5C414 211 433 200 451.8 190.3C470.7 180.7 489.3 172.3 508.2 171.7C527 171 546 178 564.8 179.8C583.7 181.7 602.3 178.3 621.2 174.3C640 170.3 659 165.7 677.8 166.5C696.7 167.3 715.3 173.7 734.2 178.3C753 183 772 186 790.8 189.2C809.7 192.3 828.3 195.7 847.2 199C866 202.3 885 205.7 903.8 203.7C922.7 201.7 941.3 194.3 950.7 190.7L960 187L960 0L950.7 0C941.3 0 922.7 0 903.8 0C885 0 866 0 847.2 0C828.3 0 809.7 0 790.8 0C772 0 753 0 734.2 0C715.3 0 696.7 0 677.8 0C659 0 640 0 621.2 0C602.3 0 583.7 0 564.8 0C546 0 527 0 508.2 0C489.3 0 470.7 0 451.8 0C433 0 414 0 395.2 0C376.3 0 357.7 0 338.8 0C320 0 301 0 282.2 0C263.3 0 244.7 0 225.8 0C207 0 188 0 169.2 0C150.3 0 131.7 0 112.8 0C94 0 75 0 56.2 0C37.3 0 18.7 0 9.3 0L0 0Z" fill="#fa7268"></path><path d="M0 173L9.3 172.8C18.7 172.7 37.3 172.3 56.2 165C75 157.7 94 143.3 112.8 144.7C131.7 146 150.3 163 169.2 166.2C188 169.3 207 158.7 225.8 158.7C244.7 158.7 263.3 169.3 282.2 165.8C301 162.3 320 144.7 338.8 132.8C357.7 121 376.3 115 395.2 118.5C414 122 433 135 451.8 137.7C470.7 140.3 489.3 132.7 508.2 132.5C527 132.3 546 139.7 564.8 137.3C583.7 135 602.3 123 621.2 125.7C640 128.3 659 145.7 677.8 154.2C696.7 162.7 715.3 162.3 734.2 161.2C753 160 772 158 790.8 152C809.7 146 828.3 136 847.2 136C866 136 885 146 903.8 146C922.7 146 941.3 136 950.7 131L960 126L960 0L950.7 0C941.3 0 922.7 0 903.8 0C885 0 866 0 847.2 0C828.3 0 809.7 0 790.8 0C772 0 753 0 734.2 0C715.3 0 696.7 0 677.8 0C659 0 640 0 621.2 0C602.3 0 583.7 0 564.8 0C546 0 527 0 508.2 0C489.3 0 470.7 0 451.8 0C433 0 414 0 395.2 0C376.3 0 357.7 0 338.8 0C320 0 301 0 282.2 0C263.3 0 244.7 0 225.8 0C207 0 188 0 169.2 0C150.3 0 131.7 0 112.8 0C94 0 75 0 56.2 0C37.3 0 18.7 0 9.3 0L0 0Z" fill="#ef5f67"></path><path d="M0 130L9.3 123.7C18.7 117.3 37.3 104.7 56.2 101.2C75 97.7 94 103.3 112.8 102C131.7 100.7 150.3 92.3 169.2 93C188 93.7 207 103.3 225.8 103.3C244.7 103.3 263.3 93.7 282.2 97.7C301 101.7 320 119.3 338.8 127.5C357.7 135.7 376.3 134.3 395.2 133.3C414 132.3 433 131.7 451.8 128.5C470.7 125.3 489.3 119.7 508.2 119.3C527 119 546 124 564.8 121.7C583.7 119.3 602.3 109.7 621.2 107.3C640 105 659 110 677.8 108.5C696.7 107 715.3 99 734.2 100.7C753 102.3 772 113.7 790.8 112.3C809.7 111 828.3 97 847.2 98.5C866 100 885 117 903.8 123.7C922.7 130.3 941.3 126.7 950.7 124.8L960 123L960 0L950.7 0C941.3 0 922.7 0 903.8 0C885 0 866 0 847.2 0C828.3 0 809.7 0 790.8 0C772 0 753 0 734.2 0C715.3 0 696.7 0 677.8 0C659 0 640 0 621.2 0C602.3 0 583.7 0 564.8 0C546 0 527 0 508.2 0C489.3 0 470.7 0 451.8 0C433 0 414 0 395.2 0C376.3 0 357.7 0 338.8 0C320 0 301 0 282.2 0C263.3 0 244.7 0 225.8 0C207 0 188 0 169.2 0C150.3 0 131.7 0 112.8 0C94 0 75 0 56.2 0C37.3 0 18.7 0 9.3 0L0 0Z" fill="#e34c67"></path><path d="M0 65L9.3 67.8C18.7 70.7 37.3 76.3 56.2 75.8C75 75.3 94 68.7 112.8 68.7C131.7 68.7 150.3 75.3 169.2 79.3C188 83.3 207 84.7 225.8 79.8C244.7 75 263.3 64 282.2 58.7C301 53.3 320 53.7 338.8 60.2C357.7 66.7 376.3 79.3 395.2 81.3C414 83.3 433 74.7 451.8 68.5C470.7 62.3 489.3 58.7 508.2 62.8C527 67 546 79 564.8 84.8C583.7 90.7 602.3 90.3 621.2 83.5C640 76.7 659 63.3 677.8 64.7C696.7 66 715.3 82 734.2 87.8C753 93.7 772 89.3 790.8 85.3C809.7 81.3 828.3 77.7 847.2 75.8C866 74 885 74 903.8 73C922.7 72 941.3 70 950.7 69L960 68L960 0L950.7 0C941.3 0 922.7 0 903.8 0C885 0 866 0 847.2 0C828.3 0 809.7 0 790.8 0C772 0 753 0 734.2 0C715.3 0 696.7 0 677.8 0C659 0 640 0 621.2 0C602.3 0 583.7 0 564.8 0C546 0 527 0 508.2 0C489.3 0 470.7 0 451.8 0C433 0 414 0 395.2 0C376.3 0 357.7 0 338.8 0C320 0 301 0 282.2 0C263.3 0 244.7 0 225.8 0C207 0 188 0 169.2 0C150.3 0 131.7 0 112.8 0C94 0 75 0 56.2 0C37.3 0 18.7 0 9.3 0L0 0Z" fill="#d53867"></path><path d="M0 44L9.3 43.5C18.7 43 37.3 42 56.2 41.7C75 41.3 94 41.7 112.8 38.5C131.7 35.3 150.3 28.7 169.2 32.3C188 36 207 50 225.8 56.5C244.7 63 263.3 62 282.2 59.2C301 56.3 320 51.7 338.8 50.8C357.7 50 376.3 53 395.2 54.8C414 56.7 433 57.3 451.8 53.2C470.7 49 489.3 40 508.2 34.2C527 28.3 546 25.7 564.8 30.8C583.7 36 602.3 49 621.2 54C640 59 659 56 677.8 52.8C696.7 49.7 715.3 46.3 734.2 42.7C753 39 772 35 790.8 33.8C809.7 32.7 828.3 34.3 847.2 36.3C866 38.3 885 40.7 903.8 41.7C922.7 42.7 941.3 42.3 950.7 42.2L960 42L960 0L950.7 0C941.3 0 922.7 0 903.8 0C885 0 866 0 847.2 0C828.3 0 809.7 0 790.8 0C772 0 753 0 734.2 0C715.3 0 696.7 0 677.8 0C659 0 640 0 621.2 0C602.3 0 583.7 0 564.8 0C546 0 527 0 508.2 0C489.3 0 470.7 0 451.8 0C433 0 414 0 395.2 0C376.3 0 357.7 0 338.8 0C320 0 301 0 282.2 0C263.3 0 244.7 0 225.8 0C207 0 188 0 169.2 0C150.3 0 131.7 0 112.8 0C94 0 75 0 56.2 0C37.3 0 18.7 0 9.3 0L0 0Z" fill="#c62368"></path></svg>