<svg id="visual" viewBox="0 0 540 960" width="540" height="960" xmlns="http://www.w3.org/2000/svg" xmlns:xlink="http://www.w3.org/1999/xlink" version="1.1"><rect x="0" y="0" width="540" height="960" fill="#273c4e"></rect><path d="M138 0L129.7 32C121.3 64 104.7 128 117.7 192C130.7 256 173.3 320 181.5 384C189.7 448 163.3 512 148.2 576C133 640 129 704 137 768C145 832 165 896 175 928L185 960L0 960L0 928C0 896 0 832 0 768C0 704 0 640 0 576C0 512 0 448 0 384C0 320 0 256 0 192C0 128 0 64 0 32L0 0Z" fill="#314b62"></path><path d="M33 0L45.7 32C58.3 64 83.7 128 86.2 192C88.7 256 68.3 320 72 384C75.7 448 103.3 512 100 576C96.7 640 62.3 704 50.8 768C39.3 832 50.7 896 56.3 928L62 960L0 960L0 928C0 896 0 832 0 768C0 704 0 640 0 576C0 512 0 448 0 384C0 320 0 256 0 192C0 128 0 64 0 32L0 0Z" fill="#2b4256"></path><path d="M105 0L96.2 32C87.3 64 69.7 128 59.8 192C50 256 48 320 50.7 384C53.3 448 60.7 512 69.8 576C79 640 90 704 82.7 768C75.3 832 49.7 896 36.8 928L24 960L0 960L0 928C0 896 0 832 0 768C0 704 0 640 0 576C0 512 0 448 0 384C0 320 0 256 0 192C0 128 0 64 0 32L0 0Z" fill="#25394a"></path><path d="M25 0L26.8 32C28.7 64 32.3 128 41.2 192C50 256 64 320 65.3 384C66.7 448 55.3 512 45 576C34.7 640 25.3 704 28.3 768C31.3 832 46.7 896 54.3 928L62 960L0 960L0 928C0 896 0 832 0 768C0 704 0 640 0 576C0 512 0 448 0 384C0 320 0 256 0 192C0 128 0 64 0 32L0 0Z" fill="#1f303e"></path></svg>