<svg id="visual" viewBox="0 0 540 960" width="540" height="960" xmlns="http://www.w3.org/2000/svg" xmlns:xlink="http://www.w3.org/1999/xlink" version="1.1"><rect x="0" y="0" width="540" height="960" fill="#273c4e"></rect><path d="M0 854L30 849.3C60 844.7 120 835.3 180 836.5C240 837.7 300 849.3 360 846C420 842.7 480 824.3 510 815.2L540 806L540 961L510 961C480 961 420 961 360 961C300 961 240 961 180 961C120 961 60 961 30 961L0 961Z" fill="#314b62"></path><path d="M0 818L30 823.8C60 829.7 120 841.3 180 850C240 858.7 300 864.3 360 863.5C420 862.7 480 855.3 510 851.7L540 848L540 961L510 961C480 961 420 961 360 961C300 961 240 961 180 961C120 961 60 961 30 961L0 961Z" fill="#2d455b"></path><path d="M0 862L30 867.3C60 872.7 120 883.3 180 884.8C240 886.3 300 878.7 360 876.3C420 874 480 877 510 878.5L540 880L540 961L510 961C480 961 420 961 360 961C300 961 240 961 180 961C120 961 60 961 30 961L0 961Z" fill="#2a4054"></path><path d="M0 907L30 906.8C60 906.7 120 906.3 180 901.2C240 896 300 886 360 881.7C420 877.3 480 878.7 510 879.3L540 880L540 961L510 961C480 961 420 961 360 961C300 961 240 961 180 961C120 961 60 961 30 961L0 961Z" fill="#263a4c"></path><path d="M0 914L30 914.5C60 915 120 916 180 914.2C240 912.3 300 907.7 360 907.8C420 908 480 913 510 915.5L540 918L540 961L510 961C480 961 420 961 360 961C300 961 240 961 180 961C120 961 60 961 30 961L0 961Z" fill="#223545"></path><path d="M0 921L30 924.2C60 927.3 120 933.7 180 933.5C240 933.3 300 926.7 360 925.5C420 924.3 480 928.7 510 930.8L540 933L540 961L510 961C480 961 420 961 360 961C300 961 240 961 180 961C120 961 60 961 30 961L0 961Z" fill="#1f303e"></path></svg>