<svg xmlns="http://www.w3.org/2000/svg" viewBox="0 0 6.2871328 6.2875644" width="23.762392" height="23.764023">
  <style>
    #frame { fill: #191c20; } 
    #inner { fill: #3e5f90; } 
    @media (prefers-color-scheme: dark) {
      #frame { fill: #ffffff; } 
      #inner { fill: #a0c4ff; } 
    }
  </style>
  <g transform="translate(-0.03122624,-0.03180819)">
    <g transform="rotate(-90,3.1747928,3.1755903)">
      <path id="frame" d="M 6.270305,3.7215006 C 6.395087,3.013836 6.2802088,2.2642116 5.8992113,1.6043131 5.1372161,0.28451618 3.5324625,-0.29972682 2.1003831,0.22150064 0.66830374,0.74272809 -0.18573956,2.2206818 0.07889874,3.7215006 0.34353704,5.2223194 1.6525685,6.3191569 3.176555,6.3191569 A 0.2645835,0.2645835 0 0 0 3.4402268,6.055485 0.2645835,0.2645835 0 0 0 3.176555,5.78986 C 1.9058523,5.78986 0.82103754,4.8810805 0.60038314,3.6297038 0.37972874,2.378327 1.0879543,1.1541475 2.2820237,0.71954751 3.4760931,0.28494748 4.8048774,0.76754184 5.4402269,1.867985 6.0755764,2.9684282 5.8296557,4.3617519 4.8562425,5.1785319 a 0.2645835,0.2645835 0 0 0 -0.033203,0.3730468 0.2645835,0.2645835 0 0 0 0.3730468,0.033203 C 5.7798077,5.0949878 6.145523,4.4291653 6.270305,3.7215006 Z"/>
      <path id="inner" d="m 3.1753831,4.7632974 a 1.5875,1.5875 0 0 1 -1.5874999,-1.5874999 1.5875,1.5875 0 0 1 1.5874999,-1.5875 1.5875,1.5875 0 0 1 1.5875,1.5875 1.5875,1.5875 0 0 1 -1.5875,1.5874999"/>
    </g>
  </g>
</svg>