<?xml version="1.0" standalone="no"?>
<!DOCTYPE svg PUBLIC "-//W3C//DTD SVG 20010904//EN"
 "http://www.w3.org/TR/2001/REC-SVG-20010904/DTD/svg10.dtd">
<svg version="1.0" xmlns="http://www.w3.org/2000/svg"
 width="512.000000pt" height="512.000000pt" viewBox="0 0 512.000000 512.000000"
 preserveAspectRatio="xMidYMid meet">
<metadata>
Created by potrace 1.14, written by Peter Selinger 2001-2017
</metadata>
<g transform="translate(0.000000,512.000000) scale(0.100000,-0.100000)"
fill="#000000" stroke="none">
<path d="M2345 5104 c-16 -2 -84 -11 -150 -20 -1026 -138 -1880 -917 -2125
-1939 -53 -220 -65 -327 -65 -595 0 -268 12 -375 65 -595 245 -1021 1086
-1789 2121 -1940 147 -21 591 -21 738 0 1035 151 1876 919 2121 1940 53 220
65 327 65 595 0 268 -12 375 -65 595 -245 1022 -1071 1777 -2120 1940 -100 16
-512 29 -585 19z m535 -179 c273 -42 486 -107 725 -225 502 -246 859 -603
1105 -1105 168 -343 244 -667 244 -1045 0 -378 -76 -702 -244 -1045 -246 -502
-603 -859 -1105 -1105 -348 -171 -649 -240 -1045 -240 -396 0 -697 69 -1045
240 -502 246 -859 603 -1105 1105 -168 343 -244 667 -244 1045 0 378 76 702
244 1045 246 502 603 858 1105 1105 279 138 533 207 890 244 79 8 372 -4 475
-19z"/>
<path d="M2630 4520 l0 -180 -70 0 -70 0 0 110 0 110 -70 0 -70 0 0 -114 c0
-79 -4 -117 -12 -123 -7 -6 -37 -18 -67 -27 -136 -44 -277 -133 -382 -242 -81
-85 -118 -140 -169 -246 -62 -130 -82 -219 -87 -397 l-6 -155 59 -119 59 -119
-44 -37 c-159 -130 -242 -218 -333 -356 -103 -155 -171 -315 -213 -500 -22
-95 -31 -377 -16 -487 17 -130 66 -290 126 -415 197 -412 561 -699 1007 -795
150 -32 429 -32 578 1 434 94 793 370 990 761 50 99 101 246 127 363 14 63 18
127 18 277 0 219 -8 275 -65 450 -91 279 -252 505 -506 706 l-39 32 59 119 59
119 -6 155 c-3 112 -10 176 -26 234 -24 89 -83 220 -132 293 -48 69 -155 178
-225 228 -64 46 -227 127 -279 140 -55 13 -55 12 -55 210 l0 184 -70 0 -70 0
0 -180z m73 -335 c47 -8 110 -24 138 -35 130 -52 274 -162 353 -269 94 -128
156 -317 156 -475 l0 -66 -792 0 -791 0 6 103 c4 56 11 118 16 137 5 19 15 54
21 78 l11 42 229 0 229 0 19 -43 c98 -222 409 -231 516 -15 33 66 36 180 7
245 -22 48 -86 114 -133 139 -42 22 -160 30 -215 15 -63 -17 -136 -80 -168
-145 l-27 -56 -190 0 c-219 0 -212 -7 -107 105 76 81 131 122 234 173 151 75
315 97 488 67z m-93 -291 c161 -64 72 -309 -93 -255 -94 31 -125 161 -56 231
26 25 43 32 96 39 7 0 31 -6 53 -15z m683 -700 c3 -4 -10 -37 -29 -75 l-34
-69 -670 0 -670 0 -34 69 c-19 38 -32 71 -29 75 8 8 1458 8 1466 0z m-1383
-332 c0 -56 -28 -145 -66 -210 -79 -134 -217 -223 -376 -241 -73 -9 -73 -7 4
116 102 163 334 383 406 383 32 0 32 0 32 -48z m1140 38 c0 -6 -10 -30 -21
-53 -12 -23 -32 -71 -44 -107 -14 -42 -27 -64 -36 -63 -81 14 -461 92 -465 96
-3 2 -2 34 2 71 l7 66 278 0 c187 0 279 -3 279 -10z m-715 -77 c-13 -213 -119
-430 -288 -589 -118 -111 -258 -188 -412 -229 -69 -18 -288 -30 -326 -18 l-26
8 13 75 c7 41 20 101 30 133 l17 57 72 0 c321 0 608 260 642 580 l6 60 138 0
139 0 -5 -77z m989 43 c28 -19 70 -52 94 -73 l43 -38 -34 -66 c-72 -137 -88
-352 -38 -499 62 -180 202 -326 382 -396 l69 -27 0 -41 c0 -51 -29 -218 -41
-230 -4 -5 -41 3 -86 19 -353 125 -573 391 -629 760 -18 119 -12 219 22 353
38 152 103 272 147 272 11 0 43 -15 71 -34z m339 -364 c61 -100 109 -212 141
-327 24 -85 50 -245 40 -254 -2 -2 -34 11 -70 30 -201 102 -311 336 -259 554
7 33 21 78 31 100 l16 40 27 -32 c14 -17 48 -67 74 -111z m-935 74 l202 -41 4
-155 c3 -126 8 -172 28 -250 44 -163 127 -321 234 -441 24 -27 44 -52 44 -54
0 -6 -300 -349 -314 -359 -9 -6 -28 2 -60 23 -79 55 -246 129 -341 152 -125
30 -320 36 -444 15 -52 -9 -95 -15 -96 -14 -4 5 -155 449 -155 457 0 4 21 17
48 30 72 35 200 123 269 185 111 101 221 268 274 419 l32 87 36 -6 c20 -4 127
-25 239 -48z m-961 -927 c40 -118 76 -222 79 -232 4 -14 -6 -23 -48 -41 -74
-33 -192 -113 -264 -180 -70 -63 -63 -65 -117 34 -81 148 -132 329 -143 508
l-7 100 144 1 c84 0 169 6 204 14 33 8 64 13 69 12 6 -1 43 -98 83 -216z
m1624 -134 c64 -48 162 -98 258 -131 53 -19 97 -38 99 -43 5 -16 -86 -186
-136 -254 -81 -110 -135 -169 -231 -249 -89 -73 -111 -84 -111 -53 0 32 -98
204 -166 291 -74 95 -75 96 -57 119 31 41 298 344 304 344 3 1 21 -10 40 -24z
m-901 -206 c106 -26 245 -92 330 -157 134 -102 251 -254 304 -395 l26 -67 -50
-25 c-47 -24 -189 -75 -208 -75 -5 0 -15 21 -22 46 -19 67 -97 180 -173 251
-76 71 -196 134 -290 153 -71 14 -214 14 -287 0 -102 -20 -233 -93 -318 -177
l-43 -43 -94 91 c-52 51 -95 97 -95 104 0 6 28 39 63 72 133 128 306 212 503
243 87 13 257 4 354 -21z m-105 -414 c96 -25 164 -63 232 -132 58 -58 123
-163 123 -200 0 -15 -169 -27 -267 -18 -122 11 -271 42 -354 74 -96 37 -215
97 -225 113 -9 14 60 78 126 116 96 57 250 76 365 47z"/>
<path d="M2990 3550 l0 -70 70 0 70 0 0 70 0 70 -70 0 -70 0 0 -70z"/>
</g>
</svg>
