<svg xmlns="http://www.w3.org/2000/svg" version="1.1" xmlns:xlink="http://www.w3.org/1999/xlink" xmlns:svgjs="http://svgjs.com/svgjs" width="1000" height="1000"><rect width="1000" height="1000" rx="500" ry="500" fill="#f1eeee"></rect><g transform="matrix(7.465750867893538,0,0,7.465750867893538,99.99997797426028,100.00003501180026)"><svg xmlns="http://www.w3.org/2000/svg" version="1.1" xmlns:xlink="http://www.w3.org/1999/xlink" xmlns:svgjs="http://svgjs.com/svgjs" width="107.156" height="107.156"><svg viewBox="0 0 107.156 107.156" version="1.1" id="svg2" xmlns="http://www.w3.org/2000/svg" xmlns:svg="http://www.w3.org/2000/svg">
  <defs id="defs2"></defs>
  <circle cx="73.594269" cy="18.030186" r="31.935764" style="fill:#999999;fill-opacity:1;stroke-width:0;paint-order:stroke fill markers" transform="rotate(31.234)" id="circle1"></circle>
  <path d="m 97.823826,24.550311 c 10.482004,16.096 11.585004,36.464 2.885004,53.22 -3.251004,6.26 -7.171004,11.197 -12.578004,15.839 -8.157,7.001999 -17.575,11.156999 -28.129,12.409999 -15.692,1.861 -30.96,-3.14 -42.699,-13.985999 -2.3,-2.125 -7.269,-8.183 -8.8070001,-10.737 -5.624,-9.337 -8.12999999,-18.898 -7.85699999,-29.975 0.069,-2.795 0.39699999,-3.808 1.55699999,-4.801 1.014,-0.87 2.321,-1.032 3.732,-0.462 1.74,0.704 2.22,1.61 2.164,4.077 -0.144,6.279 0.189,10.07 1.252,14.272 4.3680001,17.27 18.1240001,30.292 35.6850001,33.782 2.65,0.526 8.484,0.942 11.027,0.786 10.248,-0.629 19.586,-4.386 27.246,-10.962 7.646,-6.564 12.78,-15.245 14.925,-25.241 0.534,-2.485 0.99,-8.303 0.864,-10.994 -0.494,-10.45 -4.272,-19.964 -11.045,-27.813 -6.78,-7.859 -15.633,-12.994 -25.926,-15.0379999 -2.649,-0.526 -8.484,-0.942 -11.028,-0.786 -9.359,0.573 -18.112,3.8269999 -25.454,9.4649999 -3.132,2.404 -3.96,2.696 -5.666,1.998 -1.774,-0.725 -2.56,-2.479 -2.016,-4.501 0.662,-2.468 9.818,-8.4049999 17.122,-11.1039999 17.572,-6.494 37.82,-3.07500005 52.14,8.8019999 3.643,3.021 8.23,8.105 10.606,11.751 z" style="stroke-width:0" id="path1"></path>
</svg></svg></g></svg>