<?xml version="1.0" encoding="UTF-8" standalone="no"?>
<svg
   viewBox="0 0 16 16"
   version="1.1"
   id="svg4860"
   sodipodi:docname="anchor-d.svg"
   width="16"
   height="16"
   inkscape:version="1.2.2 (732a01da63, 2022-12-09)"
   xmlns:inkscape="http://www.inkscape.org/namespaces/inkscape"
   xmlns:sodipodi="http://sodipodi.sourceforge.net/DTD/sodipodi-0.dtd"
   xmlns="http://www.w3.org/2000/svg"
   xmlns:svg="http://www.w3.org/2000/svg">
  <defs
     id="defs4864" />
  <sodipodi:namedview
     id="namedview4862"
     pagecolor="#ffffff"
     bordercolor="#cccccc"
     borderopacity="1"
     inkscape:showpageshadow="0"
     inkscape:pageopacity="1"
     inkscape:pagecheckerboard="0"
     inkscape:deskcolor="#d1d1d1"
     showgrid="false"
     inkscape:zoom="34.875"
     inkscape:cx="4.4014337"
     inkscape:cy="10.007168"
     inkscape:window-width="1920"
     inkscape:window-height="1017"
     inkscape:window-x="-8"
     inkscape:window-y="-8"
     inkscape:window-maximized="1"
     inkscape:current-layer="svg4860" />
  <path
     d="M 7.9999999,-8.0000001e-8 A 2.4,2.4 0 0 0 5.5999999,2.3999999 a 2.4,2.4 0 0 0 1.6,2.264 v 0.936 h -2.4 v 1.6 h 2.4 V 14.336 c -0.592,-0.104 -1.2,-0.272 -1.768,-0.52 -0.592,-0.256 -1.112,-0.568 -1.576,-0.944 -0.464,-0.376 -0.832,-0.784 -1.104,-1.232 l 1.248,-1.24 L 0.8,7.9999999 V 10.4 c 0,0.776 0.216,1.504 0.6559999,2.176 0.44,0.672 1.016,1.272 1.744,1.784 0.696,0.512 1.472,0.912 2.304,1.2 0.84,0.288 1.672,0.44 2.496,0.44 0.824,0 1.656,-0.16 2.4960001,-0.448 0.832,-0.288 1.608,-0.688 2.304,-1.192 0.736,-0.512 1.304,-1.104 1.744,-1.784 0.44,-0.672 0.656,-1.4 0.656,-2.176 V 7.9999999 L 12,10.4 l 1.248,1.24 c -0.272,0.448 -0.64,0.856 -1.104,1.232 -0.464,0.376 -0.984,0.688 -1.576,0.944 -0.5680001,0.248 -1.1760001,0.416 -1.7680001,0.52 V 7.1999999 H 11.2 v -1.6 H 8.7999999 v -0.944 A 2.4,2.4 0 0 0 10.4,2.3999999 2.4,2.4 0 0 0 7.9999999,-8.0000001e-8 m 0,1.599999980000001 a 0.8,0.8 0 0 1 0.8,0.8 0.8,0.8 0 0 1 -0.8,0.8 0.8,0.8 0 0 1 -0.8,-0.8 0.8,0.8 0 0 1 0.8,-0.8 z"
     id="path4858"
     style="fill:#f0f0f0;stroke-width:0.8;fill-opacity:1" />
</svg>
