<?xml version="1.0" encoding="UTF-8" standalone="no"?>
<svg
   width="100"
   height="50"
   viewBox="0 0 26.457926 13.228804"
   xml:space="preserve"
   version="1.1"
   id="svg10"
   sodipodi:docname="oxypteros.svg"
   inkscape:version="1.2.1 (9c6d41e410, 2022-07-14)"
   xmlns:inkscape="http://www.inkscape.org/namespaces/inkscape"
   xmlns:sodipodi="http://sodipodi.sourceforge.net/DTD/sodipodi-0.dtd"
   xmlns="http://www.w3.org/2000/svg"
   xmlns:svg="http://www.w3.org/2000/svg"><defs
     id="defs14" /><sodipodi:namedview
     id="namedview12"
     pagecolor="#ffffff"
     bordercolor="#666666"
     borderopacity="1.0"
     inkscape:showpageshadow="2"
     inkscape:pageopacity="0.0"
     inkscape:pagecheckerboard="0"
     inkscape:deskcolor="#d1d1d1"
     showgrid="false"
     inkscape:zoom="3.9302546"
     inkscape:cx="-21.245443"
     inkscape:cy="20.863788"
     inkscape:window-width="1920"
     inkscape:window-height="1026"
     inkscape:window-x="0"
     inkscape:window-y="26"
     inkscape:window-maximized="1"
     inkscape:current-layer="svg10" /><path
     style="fill:#48486f;fill-opacity:1;stroke-width:0.0142781"
     d="M 6.253266,12.296968 C 5.3414233,11.698606 6.6752871,10.663664 7.1869434,10.153582 7.947047,9.4895682 8.3558746,8.6569182 8.3073572,7.7138053 8.374434,7.1138603 8.7462964,5.8807321 8.618842,5.6937099 8.4171719,6.3141402 7.8783071,7.0346295 7.1177,7.1053619 6.5451164,6.5652583 6.2478954,7.8147396 5.9161398,7.9503857 5.2025656,8.7305564 4.338045,7.125824 3.9254425,7.9273392 3.4628142,8.3536417 3.7634472,8.7096564 3.3024542,9.0408716 2.3708191,9.2260042 3.159644,8.1143964 3.5416574,7.7534194 4.1042706,7.390578 3.8298397,6.7122514 3.2800074,7.3438907 2.35446,7.4984165 2.2026413,8.4835954 1.316329,8.629119 0.15116153,8.9663477 -0.19342763,7.5594575 0.41007283,6.9026105 0.69478059,6.3135849 1.0174122,5.4923471 1.8717473,5.4639603 2.6569819,5.5222531 2.9958949,6.3284124 2.6983259,6.9204216 2.081135,7.8095258 4.157959,6.9357675 3.3902656,6.5119719 2.9173989,6.2468769 2.9435108,4.9645179 3.4702609,5.8022937 3.6779916,6.126375 3.3278016,5.3184914 3.6483877,5.9014763 3.9551114,6.3591702 4.3315193,7.1839701 4.7490185,6.3119949 5.137413,6.1142325 5.9546269,4.9807293 6.2346291,5.4235133 6.3445984,5.737002 5.6956193,5.7949624 5.8499427,5.9739623 5.4602656,6.1141966 5.2585741,6.395401 4.8435099,6.7111903 4.4763104,7.069029 4.6798149,7.5381739 5.3427125,7.5897862 6.1437289,7.8059646 6.2438831,6.7142036 6.4610176,6.2228693 6.4768092,5.9675245 6.8438269,4.8716502 7.0649623,5.4310818 7.1677388,5.5133146 6.9305052,6.1476942 7.1994144,6.4256715 7.3574156,7.097505 8.1590016,6.1800397 8.2658125,5.8336609 8.4115615,5.4580016 8.4368299,4.0244315 8.9854984,4.8578513 9.1182055,5.5244843 8.7792441,6.3214757 8.7772802,7.0406899 8.8445178,7.4760979 8.5259515,8.3900068 8.6691286,8.5109497 9.2251784,7.8172594 9.7366452,7.0485148 9.9310109,6.2118979 10.100871,5.6941837 9.9300828,4.8609535 10.415419,4.555969 c 0.725076,-0.1059034 -0.228043,1.1968502 0.472418,0.3751508 0.425397,-0.4168044 1.341024,-0.3328237 1.529227,0.2324919 0.293524,0.2910898 -0.104168,1.1320266 0.0011,1.0385553 0.713334,-0.3367976 1.276988,-1.0337104 1.096989,-1.4706636 0.197765,-0.6201214 0.436292,-1.2382326 0.312989,-1.7117659 -0.884419,0.1198356 -1.878236,0.065621 -2.65287,0.2651649 -0.08529,0.1220153 -0.478993,-0.1192264 -0.397694,0.07211 -0.510831,-0.049907 -1.1171659,7.457e-4 -0.541649,-0.5215985 1.124648,0.052361 2.240674,0.012412 3.363664,-0.1132226 0.707843,0.1312208 0.363336,-0.8447642 0.787917,-1.0486677 0.579403,0.039235 -0.447159,1.4565137 0.729909,1.0463058 0.863592,-0.1843269 2.140192,-0.049045 2.753323,-0.4355349 -0.272003,-0.490568 0.44044,-1.85545791 0.975731,-1.1578486 0.478088,0.4467379 -0.0037,1.5163366 1.018413,1.1334708 1.571473,-0.102221 3.141528,-0.2554114 4.704004,-0.4381362 0.508071,-0.084126 1.866461,-0.3548007 0.944114,0.2369317 -0.603364,0.1460291 -1.475173,0.086085 -2.301273,0.1567625 -0.822485,-0.057307 -1.558339,0.2845496 -2.229091,0.2577906 -0.466092,0.093247 -1.047461,0.00439 -1.587028,0.087742 -0.606913,0.3905812 -0.358087,1.1259463 0.462558,0.7714787 0.332594,-0.075467 0.753798,-0.2889229 0.829902,0.059993 -0.340887,0.1278568 -0.34191,0.9746974 -0.481262,0.6209687 -0.126816,0.5319853 -0.45804,0.988481 -0.278373,1.1484464 -0.03316,0.2593398 -0.53292,1.1758143 0.123679,1.1892879 0.829682,-0.1246658 1.386718,-0.7811066 1.590029,-1.4717393 0.0097,-0.8278843 0.969927,-1.7271341 1.917809,-1.6162378 0.599807,0.313323 0.913162,0.8464573 0.853068,1.3692278 -0.170272,0.3802215 1.106489,-0.094205 0.613199,-0.5757557 -0.181093,-0.7649616 1.150684,-1.4624744 1.313997,-0.5251837 -0.329754,0.5742577 -0.51798,0.9428043 -0.237098,1.5950792 0.150409,0.6586825 -0.454383,1.4066605 -1.177514,1.553664 -0.407693,0.144284 -2.124701,0.1453956 -1.536973,-0.5121668 0.522041,-0.1061862 0.891365,-0.015603 1.396963,0.067462 0.763478,-0.3486267 1.169343,-0.9872001 0.724875,-1.5551345 -0.39292,-0.00817 -1.089448,0.4085076 -1.18527,0.4802741 -0.334319,0.3513046 -1.380806,1.045864 -1.240845,1.1179468 -0.643537,0.2258371 -1.388767,0.036015 -1.598767,-0.515131 -0.365916,0.6137953 -1.573212,1.4690973 -2.175755,0.724425 -0.15856,-0.7863936 0.06566,-1.6181712 0.403348,-2.3567773 C 19.960797,3.6773361 18.512218,3.437801 18.565634,4.1369148 18.284729,4.7904724 17.961509,5.4637539 17.565762,6.0812219 17.108729,6.8096358 16.031179,6.9467333 15.363935,6.5261135 14.917912,7.054572 13.799795,7.9113213 13.497743,6.8016524 13.321525,6.4541104 13.510793,5.8012639 13.025744,6.4487276 12.294431,6.806597 11.606216,7.1793878 11.167405,7.8402153 10.236592,8.5400186 9.8141449,7.0679147 10.861224,6.9181688 11.905752,6.9015658 12.519893,5.8830367 11.998468,5.0959201 11.660971,4.7539579 10.573526,5.1629621 10.817172,5.5601624 10.648381,5.9094874 10.300442,5.7995256 10.521613,6.0452667 10.267945,6.0836987 10.356795,6.7092743 10.117891,7.0084886 9.879329,7.4360327 9.8130521,8.0791363 9.7320362,8.5609973 9.473095,9.4917942 9.2141701,10.431101 9.0051203,11.371698 8.2963375,11.311278 9.1455977,10.375629 9.096396,9.9446872 9.3770543,9.0730746 9.5915632,8.1765776 9.763944,7.2938958 9.4628201,8.0394285 8.8280929,8.6162342 8.3868857,9.2798712 8.0797178,10.031776 7.8003731,10.82077 7.305015,11.495245 6.9318644,11.703585 6.7028561,12.301298 6.253214,12.296316 Z m 0.1866082,-0.33109 c 0.7692414,-0.565196 1.177153,-1.359791 1.47827,-2.1963498 A 33.543965,33.543965 0 0 0 6.3835439,11.395355 c -0.014423,0.13212 -0.3582511,0.768397 0.056332,0.570522 z M 10.756267,7.7012076 C 11.248822,7.5534787 11.917,6.6714675 11.019414,7.1872368 10.826509,7.2156159 10.289163,7.8560895 10.756267,7.7012076 Z M 1.4815123,8.3003811 C 2.2436233,7.9675776 1.8624738,7.7855906 1.249953,7.8904333 0.77987007,7.7927674 0.14045069,7.5415215 0.58730311,8.1891626 0.74347112,8.4741069 1.2125468,8.3937252 1.4815123,8.3003811 Z M 1.3716908,8.0713587 c -0.043057,-0.1052977 0.1559658,0.042654 0,0 z M 14.305318,7.0513623 c 0.976937,-0.4978248 1.126186,-1.3583728 1.311563,-2.2505978 0.202644,-0.5006646 0.557364,-1.412853 1.300893,-1.0460827 0.58939,0.6199778 -0.197188,1.5532801 -0.719772,2.0576787 -1.305633,0.6803801 0.851864,0.9737764 1.10265,0.1549554 0.506037,-0.5810187 0.610253,-1.3404225 1.042466,-1.9522658 0.414263,-0.4912335 -0.388811,-0.7747017 -0.367347,-1.3304307 -0.560282,0.1773255 -0.926046,-0.041898 -1.745628,0.1192962 -0.702221,0.1381435 -2.043244,-0.033292 -1.915382,0.9028812 -0.06497,0.6017427 -0.152147,0.9727623 -0.411506,1.5014957 0.05327,0.4574707 -0.53978,1.9654887 0.401412,1.8431226 z M 13.882653,6.8661119 c -0.06349,-0.1482074 0.151062,0.022087 0,0 z m 0.0089,-1.078634 c 0.04904,-0.075267 0.05551,0.055851 0,0 z m 0.166659,-0.8226346 c 0.05476,-0.052802 0.04302,0.04702 0,0 z m 1.439852,-1.9621349 c 0.114862,-0.087685 -0.02474,0.00196 0,0 z m 0.584091,-0.09997 c -0.02914,-0.078901 0.156076,0.0027 0,0 z m -0.15498,-0.0054 c 0.01745,-0.077349 0.07665,0.041737 0,0 z m 1.434016,-0.1096475 c 0.0082,-0.094301 0.06964,0.035743 0,0 z m 5.254393,3.2772777 c 0.719971,-0.236474 1.705005,-1.1363797 0.362892,-0.7098231 -0.820154,-0.2428219 -1.662848,0.147446 -0.705352,0.7186162 0.112542,0.015316 0.232624,0.04313 0.342562,-0.00749 z M 1.8536449,7.6245345 C 2.6672283,7.4454797 2.3525503,6.1351072 1.7984171,5.8031036 1.1863461,5.7978919 0.96003034,6.4792131 0.83406764,6.6830362 0.79448156,6.976939 0.44701217,7.3358343 0.81152463,7.5558126 1.1387674,7.6359794 1.5191803,7.6929429 1.8535931,7.6238838 Z M 12.536988,6.4376765 c -0.02367,-0.050509 -0.04989,0.056344 0,0 z M 15.840732,5.6507439 C 16.25814,5.2653521 17.238844,4.5753493 16.69014,4.0556198 16.318137,4.2619065 16.069698,4.6391527 15.856736,4.984773 c 0,0 -0.395368,1.0686504 -0.016,0.6659709 z M 4.091234,6.6142683 c -0.2712645,-0.4978309 -0.644772,-0.5337299 0,0 z M 23.123166,5.1072389 C 23.737207,4.9885229 24.372205,4.968999 24.064822,4.2880428 24.077492,3.761826 23.275098,3.2058735 22.822799,3.7708477 22.329097,3.8544887 22.367505,4.3393323 22.262163,4.605046 21.658812,5.3712454 22.660521,5.0869146 23.123166,5.1072389 Z M 22.322411,4.7207704 c -0.102082,-0.2139168 0.178332,0.035644 0,0 z M 22.44236,4.4493161 c 0.04089,-0.029433 0.03876,0.042774 0,0 z M 2.5717052,6.3967249 c -0.1643938,-0.6863891 -0.2496398,-0.390179 0,0 z M 10.599944,5.6369661 c 0.01791,-0.2699189 -0.146717,0.2146356 0,0 z m -7.3611643,0.293685 c -0.042921,-0.045717 -0.035229,0.051253 0,0 z M 25.752417,4.0148644 c 0.490143,-0.4592614 -0.0068,-0.6477939 -0.276094,-0.1785213 0.08977,0.042007 0.159424,0.2185422 0.276094,0.1785213 z M 19.876455,3.7455753 c -0.219499,-0.150261 -0.288293,0.1800098 0,0 z M 18.80518,3.0773276 c 0.613663,-0.6360413 -0.744485,-0.6103102 -0.193591,-0.095993 0.04152,-0.037999 0.144724,0.2727536 0.193591,0.095993 z M 18.593179,2.6579717 c 0.05476,-0.052802 0.04296,0.04637 0,0 z m 0.242059,-0.2758883 c 0.344799,-0.5413952 -0.31459,-1.62341221 -0.634316,-0.6910745 -0.168736,0.6145467 -0.105857,0.8296052 0.634316,0.6910745 z m -4.866084,8.9074406 c -0.0085,-0.106732 0.109189,0.03916 0,0 z M 3.67272,8.4902553 c -0.03299,-0.2593376 0.2457684,-0.05549 0,0 z M 25.236495,6.7361597 c 0.122824,-0.1524939 -0.05181,0.00735 0,0 z M 3.7850423,8.3209115 c 0.134031,-0.068902 -0.00899,-0.01435 0,0 z m 0.024243,-0.08247 c 0.023803,-0.1459596 0.090573,0.01902 0,0 z M 12.042807,7.0360932 c -0.05795,-0.070064 0.146211,0.00217 0,0 z m -4.4688531,0.00889 c 0.078688,-0.097917 0.3784922,-0.016887 0,0 z m 0.1871245,-0.126153 c 0.1118978,-0.1581772 0.065544,0.041957 0,0 z m 2.5572286,-0.29033 c 0.07718,-0.1004168 -0.02319,-0.00341 0,0 z M 7.1185727,6.0830247 c 0.029024,-0.096603 0.043828,0.090172 0,0 z M 7.1015564,5.8682629 c 0.033273,-0.051096 0.022106,0.047365 0,0 z M 24.396351,4.2074257 c -0.03446,-0.2035569 0.155876,0.091122 0,0 z m 0.559072,-0.093408 c -0.01507,-0.14026 0.140528,0.079241 0,0 z m -4.833184,0.3285248 c 0.121947,-0.2958431 0.03928,0.1232725 0,0 z m 4.250239,-0.3628936 c 0.04664,-0.056087 0.05489,0.04804 0,0 z M 24.91711,3.9775634 c -0.279274,-0.474931 0.225532,0.1602603 0,0 z M 24.8425,3.9284654 c 0.08803,-0.062638 -0.02015,0.076251 0,0 z M 6.5842677,5.3565224 c -0.01862,-0.1524216 0.2331009,0.032616 0,0 z M 10.080509,3.5274891 c 0.111988,-0.074356 -0.0094,-0.011025 0,0 z m 0.158059,-0.071461 c 0.208041,-0.1101282 -0.04676,0.112414 0,0 z m 2.023363,-0.1432607 c -0.02797,-0.1130392 0.137526,0.057867 0,0 z M 10.39568,3.4304867 c 0.102818,-0.1653167 0.192586,0.1163739 0,0 z m 0.309779,-0.02454 c 0.0041,-0.072362 0.06239,0.043515 0,0 z m 2.516628,-0.1993643 c -0.0021,-0.1085475 0.126745,0.029256 0,0 z m -2.262051,0.1641325 c -0.01324,-0.08408 0.08615,0.012819 0,0 z M 21.818568,2.5105166 c 0.03524,-0.051255 0.04287,0.04506 0,0 z M 11.359907,3.3095708 c -0.06079,-0.1392647 0.179931,0.055818 0,0 z m 8.056122,-0.6309905 c 0.137115,-0.253168 0.576181,0.031631 0,0 z m 2.517059,-0.2517884 c -0.05116,-0.13348 0.122325,0.023056 0,0 z m 0.52735,-0.039186 c 0.141045,-0.2200805 0.414821,0.061441 0,0 z"
     id="path2"
     inkscape:transform-center-x="0.70747015"
     inkscape:transform-center-y="-0.32692589" /></svg>
